<?xml version="1.0" encoding="UTF-8"?>
<svg version="1.1" xmlns="http://www.w3.org/2000/svg" width="512" height="512">
<path d="M0 0 C8.88902486 -1.31029578 18.05920749 -2.50891983 25.80846298 2.84432602 C30.91580591 6.99546265 35.43919782 11.72764855 39.99925232 16.46044922 C41.80293304 18.25352878 43.61121972 20.04198494 45.42366081 21.82620907 C49.34147013 25.70389304 53.22472649 29.61170088 57.08086967 33.5506382 C62.81465099 39.40717965 68.60810543 45.20189347 74.41489132 50.98594544 C84.18461207 60.72085304 93.90476212 70.50386289 103.59716606 80.31570435 C113.19367462 90.03020137 122.81131607 99.72294469 132.45796394 109.38766479 C133.05871051 109.98956465 133.65945708 110.5914645 134.27840809 111.21160374 C137.32978301 114.26862845 140.38152787 117.32528356 143.43340827 120.38180363 C165.03380776 142.01650896 186.58440556 163.70020539 208.10668945 185.41259766 C228.99352174 206.48375395 249.90505876 227.52991226 270.84887695 248.54443359 C271.49433085 249.19208341 272.13978474 249.83973322 272.80479784 250.50700879 C278.6432077 256.36524692 284.48186526 262.22323813 290.32077989 268.08097315 C328.9893161 306.87474253 367.64049764 345.68619698 406.21262806 384.57584816 C407.28204673 385.65406995 408.35146637 386.73229078 409.42088699 387.81051064 C409.94493102 388.33887358 410.46897505 388.86723652 411.00889919 389.41161047 C414.64026571 393.07244309 418.27409958 396.73081421 421.90908623 400.38805199 C426.70020957 405.20859076 431.48623385 410.03413258 436.26864649 414.86331582 C438.00062377 416.61073527 439.73422782 418.35654411 441.46960645 420.1005857 C443.82658235 422.46993042 446.17743169 424.84519236 448.52681637 427.22206116 C449.20294176 427.89893532 449.87906714 428.57580947 450.57568118 429.27319497 C461.211128 440.07492079 468.42964566 451.23542691 468.3125 466.8125 C468.20762938 479.9292929 464.6358543 489.59493767 455.7421875 499.51953125 C445.59781479 509.35402762 434.16342624 512.33172771 420.49462891 512.38500977 C405.32460081 512.11909588 395.10761413 504.5224447 384.89453125 494.02734375 C382.48092741 491.44453882 380.14672053 488.80327871 377.83984375 486.125 C374.29108659 482.02622316 370.63344919 478.02361823 367 474 C358.43139793 464.51127959 358.43139793 464.51127959 354.5625 460.0625 C350.90942044 455.86696779 347.15494451 451.76626447 343.40625 447.65625 C340.84851229 444.83277331 338.34230031 441.96943998 335.84375 439.09375 C333.59123543 436.53580973 331.29682908 434.0182102 329 431.5 C325.56735239 427.73649479 322.1844499 423.93870649 318.84375 420.09375 C316.59123543 417.53580973 314.29682908 415.0182102 312 412.5 C308.56735239 408.73649479 305.1844499 404.93870649 301.84375 401.09375 C299.59123543 398.53580973 297.29682908 396.0182102 295 393.5 C291.54424587 389.71065874 288.1347711 385.88916302 284.76953125 382.01953125 C281.22423046 377.97334911 277.60541001 373.99256813 274 370 C265.43139793 360.51127959 265.43139793 360.51127959 261.5625 356.0625 C257.90942044 351.86696779 254.15494451 347.76626447 250.40625 343.65625 C247.84851229 340.83277331 245.34230031 337.96943998 242.84375 335.09375 C239.75337616 331.58434241 236.58785908 328.14333436 233.43359375 324.69140625 C230.72328562 321.69397077 228.08284486 318.64336211 225.47265625 315.55859375 C223.88465213 313.76144919 223.88465213 313.76144919 221 312 C220.35450195 312.67168213 219.70900391 313.34336426 219.04394531 314.03540039 C216.64603377 316.51845892 214.23730314 318.98991099 211.8203125 321.4543457 C210.77602855 322.52379507 209.73627331 323.59768596 208.70117188 324.67602539 C207.21348071 326.22427869 205.71029773 327.75589136 204.203125 329.28515625 C203.30239258 330.21207275 202.40166016 331.13898926 201.47363281 332.09399414 C199 334 199 334 197.05286318 333.80299538 C194.69727691 332.88158722 193.46673881 331.84267593 191.6805563 330.05807972 C191.0419144 329.42726106 190.4032725 328.79644241 189.74527782 328.14650804 C189.05238897 327.44692702 188.35950011 326.747346 187.64561462 326.02656555 C186.90266807 325.28829897 186.15972151 324.55003238 185.39426142 323.78939408 C182.89617876 321.30331671 180.40900231 318.80660528 177.92163086 316.30981445 C176.13657824 314.5288254 174.35088769 312.74847552 172.56460571 310.96871948 C168.20946595 306.6258679 163.86144109 302.27600277 159.51678764 297.92266349 C155.98034104 294.37944069 152.44097586 290.8391582 148.89950752 287.30095482 C148.39533433 286.79724132 147.89116113 286.29352783 147.37170996 285.77455029 C146.34733482 284.75113437 145.32295298 283.72772516 144.2985645 282.7043226 C134.68306038 273.09738105 125.0767849 263.48125372 115.4736215 253.86197849 C107.25492539 245.62991914 99.02845278 237.40569992 90.79614258 229.18725586 C81.22666907 219.63389334 71.66215519 210.07560897 62.1053229 200.50959939 C61.08262246 199.48594339 60.0599158 198.46229361 59.03720284 197.43865013 C58.53409844 196.93508291 58.03099405 196.43151569 57.51264406 195.91268886 C53.9883943 192.38586264 50.46070378 188.86250133 46.93162346 185.34050941 C42.16141777 180.57967453 37.39937688 175.81081188 32.64247513 171.03667831 C30.90329407 169.29355903 29.16160822 167.55293438 27.41712761 165.81511879 C0.34969288 138.84150518 -15.9796632 111.74614182 -16.375 72.5625 C-16.12191775 47.33072681 -9.59266539 23.16906367 0 0 Z " fill="#000000" transform="translate(44,0)"/>
<path d="M0 0 C3.52344644 1.6586188 5.79901878 3.56657308 8.546875 6.3515625 C9.39121094 7.20234375 10.23554688 8.053125 11.10546875 8.9296875 C11.97816406 9.81914062 12.85085938 10.70859375 13.75 11.625 C14.63816406 12.5221875 15.52632812 13.419375 16.44140625 14.34375 C18.63216969 16.55807004 20.81812763 18.77692435 23 21 C21.65323083 24.00023948 20.16088099 26.08720005 17.83627319 28.40423584 C17.185634 29.05762436 16.53499481 29.71101288 15.86463928 30.38420105 C15.15182297 31.08982681 14.43900665 31.79545258 13.70458984 32.52246094 C12.95327286 33.27406998 12.20195587 34.02567902 11.4278717 34.80006409 C8.94360487 37.28293771 6.45232905 39.7586523 3.9609375 42.234375 C2.23700151 43.95458084 0.51350659 45.6752288 -1.20956421 47.39630127 C-5.74584251 51.92494332 -10.28809494 56.44754715 -14.831604 60.96893311 C-19.46686953 65.58374014 -24.09647863 70.20421396 -28.7265625 74.82421875 C-37.81217086 83.88837732 -46.90390788 92.9463628 -56 102 C-54.46712414 105.22314687 -52.85849312 107.37735598 -50.3046875 109.890625 C-49.58925781 110.59960938 -48.87382812 111.30859375 -48.13671875 112.0390625 C-47.39035156 112.76867187 -46.64398438 113.49828125 -45.875 114.25 C-45.12089844 114.99507813 -44.36679687 115.74015625 -43.58984375 116.5078125 C-41.73099228 118.3431342 -39.86762995 120.1736191 -38 122 C-32.89158298 117.7237549 -28.10890952 113.24775843 -23.41235352 108.52587891 C-22.68956711 107.80323853 -21.9667807 107.08059814 -21.22209167 106.33605957 C-18.85531584 103.96859215 -16.49209281 101.59761225 -14.12890625 99.2265625 C-12.48003154 97.57582093 -10.83093458 95.92530133 -9.18162537 94.2749939 C-4.85745076 89.94701522 -0.5362887 85.61604101 3.78424072 81.28442383 C8.2000387 76.85836624 12.618696 72.43516519 17.03710938 68.01171875 C25.69419795 59.3439301 34.34810481 50.67297231 43 42 C44.12203297 42.95640926 45.24331233 43.91370268 46.36427307 44.87136841 C47.30101285 45.67086505 47.30101285 45.67086505 48.25667667 46.48651314 C50.23901519 48.20750388 52.1169148 50.00290519 53.96484375 51.8671875 C54.94614258 52.85332031 54.94614258 52.85332031 55.94726562 53.859375 C56.60404297 54.52453125 57.26082031 55.1896875 57.9375 55.875 C58.62134766 56.56335937 59.30519531 57.25171875 60.00976562 57.9609375 C61.67551464 59.63833511 63.3388622 61.31803791 65 63 C63.65323083 66.00023948 62.16088099 68.08720005 59.83627319 70.40423584 C59.185634 71.05762436 58.53499481 71.71101288 57.86463928 72.38420105 C57.15182297 73.08982681 56.43900665 73.79545258 55.70458984 74.52246094 C54.95327286 75.27406998 54.20195587 76.02567902 53.4278717 76.80006409 C50.94360487 79.28293771 48.45232905 81.7586523 45.9609375 84.234375 C44.23700151 85.95458084 42.51350659 87.6752288 40.79043579 89.39630127 C36.25415749 93.92494332 31.71190506 98.44754715 27.168396 102.96893311 C22.53313047 107.58374014 17.90352137 112.20421396 13.2734375 116.82421875 C4.18782914 125.88837732 -4.90390788 134.9463628 -14 144 C-12.46712414 147.22314687 -10.85849312 149.37735598 -8.3046875 151.890625 C-7.58925781 152.59960938 -6.87382812 153.30859375 -6.13671875 154.0390625 C-5.39035156 154.76867187 -4.64398438 155.49828125 -3.875 156.25 C-3.12089844 156.99507812 -2.36679687 157.74015625 -1.58984375 158.5078125 C0.26900772 160.3431342 2.13237005 162.1736191 4 164 C7.00023948 162.65323083 9.08720005 161.16088099 11.40423584 158.83627319 C12.05762436 158.185634 12.71101288 157.53499481 13.38420105 156.86463928 C14.08982681 156.15182297 14.79545258 155.43900665 15.52246094 154.70458984 C16.27406998 153.95327286 17.02567902 153.20195587 17.80006409 152.4278717 C20.28293771 149.94360487 22.7586523 147.45232905 25.234375 144.9609375 C26.95458084 143.23700151 28.6752288 141.51350659 30.39630127 139.79043579 C34.92494332 135.25415749 39.44754715 130.71190506 43.96893311 126.168396 C48.58374014 121.53313047 53.20421396 116.90352137 57.82421875 112.2734375 C66.88837732 103.18782914 75.9463628 94.09609212 85 85 C88.52344644 86.6586188 90.79901878 88.56657308 93.546875 91.3515625 C94.39121094 92.20234375 95.23554688 93.053125 96.10546875 93.9296875 C96.97816406 94.81914063 97.85085938 95.70859375 98.75 96.625 C99.63816406 97.5221875 100.52632812 98.419375 101.44140625 99.34375 C103.63216969 101.55807004 105.81812763 103.77692435 108 106 C102.91438021 112.13916049 97.38911777 117.77269477 91.76293945 123.4140625 C90.73539979 124.44787955 89.70804592 125.48188131 88.68086243 126.51605225 C85.32855341 129.88924509 81.97105303 133.25724641 78.61328125 136.625 C77.45141137 137.79092272 76.28957366 138.9568775 75.12776756 140.12286377 C69.66870704 145.6009382 64.2072635 151.076623 58.74286777 156.54937553 C52.46004738 162.84196683 46.18559556 169.14275061 39.91811973 175.45062447 C35.05530735 180.34369026 30.18475495 185.22896577 25.30844468 190.10857964 C22.40415143 193.01521189 19.50318853 195.92498557 16.61040688 198.84307861 C13.88673627 201.59019856 11.15349529 204.32743698 8.41297722 207.05774689 C7.41590931 208.05432348 6.42217853 209.05425345 5.43230438 210.05797577 C-11.57488357 227.28945953 -30.42338362 233.25491435 -53.74926758 236.65869141 C-56.10980103 236.95186857 -56.10980103 236.95186857 -58.70697021 237.89743042 C-62.34303835 238.01068478 -62.70265873 237.82394407 -65.30979919 235.58581543 C-66.53741428 234.40289478 -67.74600061 233.20003998 -68.93920898 231.98242188 C-69.93779686 231.00464279 -69.93779686 231.00464279 -70.95655823 230.0071106 C-73.1544911 227.84511537 -75.32568529 225.65835105 -77.49609375 223.46875 C-79.01353987 221.95855728 -80.53195049 220.44933313 -82.05128479 218.94104004 C-85.23263393 215.7745322 -88.40070412 212.59543296 -91.56030273 209.40722656 C-95.61294619 205.32031021 -99.6984247 201.26814743 -103.7947073 197.22502899 C-106.93766896 194.11485451 -110.061579 190.98608724 -113.18013191 187.85145569 C-114.67924771 186.34951667 -116.18446921 184.85364658 -117.69579887 183.36399841 C-119.80589326 181.27891903 -121.88878812 179.16996551 -123.96655273 177.05273438 C-124.59657196 176.44048004 -125.22659119 175.82822571 -125.8757019 175.19741821 C-127.49511008 173.51718413 -128.8480478 172.02975875 -130 170 C-129.90118408 166.23168945 -129.90118408 166.23168945 -129 163 C-128.87278564 162.08927734 -128.74557129 161.17855469 -128.61450195 160.24023438 C-125.6523121 139.40302609 -120.93886888 122.28671807 -106.17529297 106.58764648 C-105.57492155 105.94734969 -104.97455013 105.3070529 -104.35598564 104.64735317 C-95.36701399 95.13466143 -86.05782102 85.93098283 -76.79143381 76.69003987 C-74.08038245 73.98533706 -71.37225607 71.2777084 -68.66378784 68.57041931 C-63.55928721 63.46899869 -58.4522484 58.37012725 -53.34423912 53.27222008 C-47.51855063 47.45779758 -41.69577899 41.64045767 -35.87322259 35.82289898 C-23.91867142 23.87873657 -11.96055347 11.93815194 0 0 Z " fill="#000000" transform="translate(404,0)"/>
<path d="M0 0 C4.10444852 1.88948405 6.9114135 4.64372551 10.05371094 7.82666016 C10.9470388 8.71954994 10.9470388 8.71954994 11.8584137 9.63047791 C13.82184643 11.59530177 15.77810373 13.56711039 17.734375 15.5390625 C19.0958564 16.90427479 20.45778061 18.26904561 21.82012939 19.63339233 C25.40183824 23.22273159 28.9774999 26.8180368 32.55194092 30.41461182 C36.20157121 34.08471319 39.85688092 37.74914829 43.51171875 41.4140625 C50.68005329 48.60383652 57.842013 55.79992516 65 63 C63.37562547 67.08477126 60.45190432 69.83003832 57.39122009 72.86947632 C56.81191335 73.45260861 56.2326066 74.0357409 55.63574511 74.63654387 C53.6915148 76.59110034 51.74020122 78.53842618 49.78881836 80.48583984 C48.39386839 81.88513666 46.99933712 83.28485099 45.60519409 84.68495178 C41.81416618 88.48938822 38.01673773 92.28737441 34.21773601 96.08384657 C31.04523432 99.25527915 27.875713 102.42968201 24.70614344 105.60404456 C17.22450047 113.09679051 9.73753158 120.58418546 2.24731445 128.06835938 C-5.47185076 135.78149205 -13.18181217 143.50373718 -20.88729388 151.23053777 C-27.50705045 157.86793302 -34.13262444 164.49948185 -40.76283163 171.12643778 C-44.72077234 175.0825681 -48.67647084 179.04087557 -52.62654305 183.00486374 C-56.34541656 186.73634664 -60.07152631 190.4604516 -63.80321121 194.17912102 C-65.16788555 195.54143629 -66.53003349 196.90628801 -67.88938332 198.27391624 C-83.97579518 214.45116806 -83.97579518 214.45116806 -94.25 218.3125 C-95.43335937 218.77076172 -95.43335937 218.77076172 -96.640625 219.23828125 C-107.97506153 222.89757781 -121.14971052 221.91418065 -131.796875 216.60546875 C-134.2725894 215.15886049 -136.64141416 213.62917133 -139 212 C-139.886875 211.4225 -140.77375 210.845 -141.6875 210.25 C-150.4782746 201.6968139 -156.03148086 190.5628703 -156.54125977 178.27758789 C-156.69926159 160.87014535 -149.46686408 149.32618223 -137.57116699 137.21040344 C-135.01843156 134.63757221 -132.44660929 132.08444338 -129.87304688 129.5324707 C-128.45252059 128.1127922 -127.03265767 126.69244969 -125.61340332 125.27149963 C-121.78597398 121.44321483 -117.94941196 117.62420572 -114.11105919 113.80687737 C-110.0911366 109.80579668 -106.07979242 105.79613375 -102.06750488 101.78739929 C-94.48059774 94.20979062 -86.88608058 86.63985738 -79.28875399 79.07269686 C-70.63465325 70.45220874 -61.98913988 61.82313 -53.34431362 53.1933428 C-35.57236987 35.45269825 -17.78974591 17.72279183 0 0 Z " fill="#000000" transform="translate(156,291)"/>
</svg>
