<svg fill="#FFFFFF" xmlns="http://www.w3.org/2000/svg"  viewBox="0 0 24 24" width="24px" height="24px"><path d="M11.612 15.61l-.809 1.852c-.311.712-1.296.712-1.607 0L8.388 15.61c-.72-1.648-2.015-2.96-3.631-3.678l-2.226-.988c-.708-.314-.708-1.344 0-1.658l2.156-.957c1.657-.736 2.976-2.096 3.683-3.801L9.19 2.554c.304-.733 1.316-.733 1.62 0l.819 1.974c.707 1.705 2.026 3.065 3.683 3.801l2.156.957c.708.314.708 1.344 0 1.658l-2.226.988C13.627 12.649 12.332 13.961 11.612 15.61zM18.713 21.125l-.247.565c-.18.414-.753.414-.934 0l-.247-.565c-.44-1.008-1.231-1.81-2.219-2.249l-.76-.337c-.411-.182-.411-.78 0-.962l.717-.319c1.013-.45 1.819-1.282 2.251-2.324l.253-.611c.176-.426.765-.426.941 0l.253.611c.432 1.042 1.238 1.874 2.251 2.324l.717.319c.411.182.411.78 0 .962l-.76.337C19.945 19.315 19.153 20.117 18.713 21.125z"/></svg>