<svg fill="#FFFFFF" xmlns="http://www.w3.org/2000/svg"  viewBox="0 0 50 50" width="50px" height="50px"><path d="M 15.59375 2 L 1 11.40625 L 11 19 L 25 10.09375 Z M 25 10.09375 L 39.6875 18.59375 L 49 11 L 34.8125 2 Z M 39.6875 18.59375 L 25 27.8125 L 34.59375 35.09375 L 49 26.5 Z M 25 27.8125 L 11 19 L 1 26.5 L 15.59375 35.09375 Z M 25 30.3125 L 16.8125 36.6875 C 16.460938 36.957031 16.035156 37.09375 15.59375 37.09375 C 15.238281 37.09375 14.902344 36.992188 14.59375 36.8125 L 9 33.53125 L 9 39.09375 C 9 39.429688 9.15625 39.75 9.4375 39.9375 L 24.4375 49.84375 C 24.605469 49.953125 24.808594 50 25 50 C 25.191406 50 25.398438 49.953125 25.5625 49.84375 L 40.5625 40.03125 C 40.84375 39.847656 41 39.527344 41 39.1875 L 41 33.59375 L 35.625 36.8125 C 35.316406 37 34.953125 37.09375 34.59375 37.09375 C 34.15625 37.09375 33.722656 36.949219 33.375 36.6875 Z"/></svg>