<svg fill="#FFFFFF" xmlns="http://www.w3.org/2000/svg"  viewBox="0 0 64 64" width="50px" height="50px"><path d="M 18.505859 9.4140625 C 15.577379 9.4140625 13.181641 11.809801 13.181641 14.738281 L 13.181641 50.154297 C 13.181641 53.082777 15.577379 55.478516 18.505859 55.478516 L 46.644531 55.478516 C 49.573011 55.478516 51.96875 53.082777 51.96875 50.154297 L 51.96875 29.148438 A 1.0001 1.0001 0 1 0 49.96875 29.148438 L 49.96875 50.154297 C 49.96875 52.001817 48.492051 53.478516 46.644531 53.478516 L 18.505859 53.478516 C 16.65834 53.478516 15.181641 52.001817 15.181641 50.154297 L 15.181641 14.738281 C 15.181641 12.890761 16.65834 11.414062 18.505859 11.414062 L 36.712891 11.414062 L 48.449219 24.03125 L 39.064453 24.03125 C 38.283048 24.03125 37.669922 23.420077 37.669922 22.638672 L 37.669922 16.798828 A 1.0001 1.0001 0 1 0 35.669922 16.798828 L 35.669922 22.638672 C 35.669922 24.501267 37.201858 26.03125 39.064453 26.03125 L 50.744141 26.03125 A 1.0001 1.0001 0 0 0 51.476562 24.351562 L 37.880859 9.734375 A 1.0001 1.0001 0 0 0 37.148438 9.4140625 L 18.505859 9.4140625 z"/></svg>