<?xml version="1.0" encoding="UTF-8"?>
<svg version="1.1" xmlns="http://www.w3.org/2000/svg" width="500" height="500">
<path d="M0 0 C4.49079319 2.2453966 6.96781222 4.42905009 9 9 C9.36135332 12.61241795 9.28246446 16.18680565 9.1875 19.8125 C9.17396484 20.79154297 9.16042969 21.77058594 9.14648438 22.77929688 C9.11125312 25.18676625 9.06199265 27.59309564 9 30 C9.90427734 29.97905273 10.80855469 29.95810547 11.74023438 29.93652344 C37.15499719 29.42771293 59.85317139 31.90212119 84.4765625 38.54296875 C102.58075584 43.38023228 120.03587711 45.15884984 138.75 44.9375 C151.28760326 44.86296015 151.28760326 44.86296015 156.0625 48.625 C157.44501213 52.12736407 157.7764532 55.34268773 157 59 C153.99487293 63.03545636 151.85377293 64.22502785 147 65 C150.29429164 73.74041314 153.7933779 82.36441971 157.5 90.9375 C158.27114136 92.73018311 158.27114136 92.73018311 159.05786133 94.55908203 C161.80865537 100.95089574 164.57822364 107.33448534 167.35546875 113.71484375 C168.46639688 116.26812003 169.57699399 118.82154011 170.6875 121.375 C170.95979431 122.00066864 171.23208862 122.62633728 171.51263428 123.27096558 C175.53563095 132.52187897 179.44503737 141.8132036 183.19799805 151.17724609 C184.60412677 154.67243118 186.02466842 158.04823063 187.7421875 161.40625 C189 164 189 164 189 167 C190.0725 166.95875 191.145 166.9175 192.25 166.875 C195.77723487 166.9925745 197.061073 167.34847907 200 169 C200.93470225 177.94890855 198.86324026 183.51697853 194 191 C193.34 191 192.68 191 192 191 C191.75636719 191.57234375 191.51273437 192.1446875 191.26171875 192.734375 C184.8467354 204.25354015 169.49814535 210.90475953 157.375 214.4375 C135.38497426 220.15285634 110.95980416 218.69494994 90.78515625 207.7421875 C84.10105411 203.56110818 77.27952866 198.90211459 72 193 C72 192.34 72 191.68 72 191 C71.34 191 70.68 191 70 191 C68.81516981 188.82075876 67.65261867 186.63370585 66.5 184.4375 C66.16613281 183.82841797 65.83226562 183.21933594 65.48828125 182.59179688 C63.23663373 178.2493338 62.55556046 174.993772 63 170 C63.33 169.34 63.66 168.68 64 168 C66.50743934 167.47424659 69.01272278 167.17043522 71.5546875 166.85546875 C74.15294155 166.19353951 74.15294155 166.19353951 75.640625 163.90234375 C77.25349996 160.45876301 78.60384511 156.95484701 79.875 153.375 C81.88082565 147.73851786 84.1871763 142.32044024 86.69287109 136.88720703 C88.87828538 132.06002934 90.86397108 127.15173414 92.875 122.25 C96.07073393 114.51766476 99.39079452 106.90487846 102.99609375 99.35546875 C107.97378118 88.71876791 112.41011585 77.80777997 117 67 C116.34443115 66.91548584 115.6888623 66.83097168 115.01342773 66.74389648 C99.74477163 64.73240154 84.85288603 62.0550082 69.88647461 58.46264648 C52.81858204 54.40445922 35.97718531 52.91433948 18.4765625 52.9765625 C17.56044189 52.97825439 16.64432129 52.97994629 15.70043945 52.98168945 C13.46694964 52.98606027 11.23348 52.99219553 9 53 C9.00276538 54.05098436 9.00553076 55.10196873 9.00837994 56.1848011 C9.07495525 81.74823828 9.1242662 107.31166422 9.15543652 132.87516975 C9.17091059 145.23744918 9.19201051 157.59967137 9.22631836 169.96191406 C9.25620408 180.7358475 9.27557107 191.50973949 9.28226548 202.28371322 C9.28617912 207.98934617 9.2953881 213.69486051 9.31719017 219.40045547 C9.33754216 224.77003386 9.34383636 230.13944471 9.33932304 235.509058 C9.34014882 237.48031716 9.34612207 239.45158188 9.35761642 241.42280769 C9.3725403 244.11403787 9.36895394 246.80463533 9.36076355 249.49588013 C9.36950207 250.27604748 9.3782406 251.05621483 9.38724393 251.86002362 C9.33778029 257.87238341 7.94078751 261.88796654 3.875 266.3125 C-0.06038283 268.62239862 -3.46112209 269.17906379 -8 269 C-12.6010663 267.79316294 -14.42408868 266.81869773 -17.16915512 262.91639614 C-19.42769628 258.71908821 -19.55099118 255.02888704 -19.48101807 250.33766174 C-19.48443577 249.49046898 -19.48785347 248.64327622 -19.49137473 247.77041095 C-19.49793865 244.94497991 -19.47600242 242.12050884 -19.45410156 239.29516602 C-19.45297276 237.26460289 -19.45360758 235.23403813 -19.45587158 233.20347595 C-19.45701838 227.69979029 -19.43351431 222.19645394 -19.40557575 216.6928494 C-19.38055658 210.93798678 -19.37821968 205.18311601 -19.37347412 199.4282074 C-19.3610459 188.53441182 -19.32822623 177.64077697 -19.28807616 166.74705213 C-19.2433538 154.34327907 -19.22137022 141.9394983 -19.20129442 129.53566468 C-19.15949358 104.02368737 -19.08914437 78.5118527 -19 53 C-22.31770646 52.9908027 -25.63540957 52.98533058 -28.953125 52.98046875 C-29.88141113 52.97785034 -30.80969727 52.97523193 -31.76611328 52.97253418 C-53.32037644 52.94892083 -73.4015478 56.74960463 -94.34204102 61.48681641 C-105.52407003 64.00157914 -116.49174298 66.39011041 -128 66 C-120.02500146 84.66105852 -111.99357801 103.29745567 -103.94018555 121.92480469 C-99.25282402 132.76878574 -94.58374928 143.62040846 -89.93432617 154.48071289 C-89.60378738 155.24773529 -89.2732486 156.01475769 -88.93269348 156.80502319 C-88.32494059 158.23529319 -87.73176544 159.67187327 -87.15556335 161.11514282 C-85.85396075 164.81962915 -85.85396075 164.81962915 -82.80859375 167.015625 C-82.02613281 167.09296875 -81.24367187 167.1703125 -80.4375 167.25 C-78.05859375 167.515625 -78.05859375 167.515625 -76 168 C-73.4257309 171.86140365 -73.84635029 173.82463106 -74.3828125 178.29296875 C-75.65114641 183.8559776 -78.87659713 188.3148957 -82 193 C-82.66 193 -83.32 193 -84 193 C-84 193.66 -84 194.32 -84 195 C-84.66 195 -85.32 195 -86 195 C-86 195.66 -86 196.32 -86 197 C-102.27649869 211.63692464 -123.31641018 218.94095843 -145.13476562 217.89794922 C-165.94164069 216.43658107 -187.86701395 209.55531269 -202.47265625 193.9140625 C-207.68173272 187.38606386 -212.19823111 180.25312442 -211.875 171.6875 C-211 169 -211 169 -209.375 167.625 C-206.2052173 166.79084666 -203.26096908 166.87457811 -200 167 C-199.60425781 165.75734375 -199.20851563 164.5146875 -198.80078125 163.234375 C-196.87271957 157.45583748 -194.54851646 151.86279821 -192.1875 146.25 C-191.74172607 145.18523437 -191.29595215 144.12046875 -190.83666992 143.0234375 C-188.1445405 136.62529153 -185.36187589 130.29242377 -182.40625 124.01171875 C-176.43707208 111.22772937 -171.08637527 98.15208164 -165.6015625 85.15625 C-162.76040876 78.42622855 -159.89088342 71.70880118 -157 65 C-157.93070313 64.89042969 -158.86140625 64.78085938 -159.8203125 64.66796875 C-163 64 -163 64 -165.875 61.3125 C-168.21440914 57.66577399 -168.80841262 56.22171035 -168 52 C-166.26562755 49.10937925 -165.18230374 47.34092886 -161.87744141 46.38793945 C-158.13974603 45.88401972 -154.41327054 45.73316597 -150.6484375 45.60546875 C-148.97392831 45.53653276 -147.29944994 45.46684487 -145.625 45.39648438 C-143.02392564 45.29060979 -140.42303953 45.18912122 -137.82128906 45.10131836 C-125.16337906 44.66319749 -113.29747644 43.03316407 -101 40 C-99.84516113 39.71761475 -98.69032227 39.43522949 -97.50048828 39.14428711 C-94.61730405 38.41466591 -91.7450862 37.65437686 -88.875 36.875 C-85.25361574 35.90231415 -81.62999558 34.94007219 -78 34 C-77.30165039 33.81727539 -76.60330078 33.63455078 -75.88378906 33.44628906 C-62.36043645 30.16305201 -48.82883341 29.7171094 -35 29.875 C-33.43490169 29.88507016 -31.86979696 29.89418874 -30.3046875 29.90234375 C-26.53629437 29.92399123 -22.76822222 29.95828773 -19 30 C-19.02094727 29.39526855 -19.04189453 28.79053711 -19.06347656 28.16748047 C-19.14708945 25.40349229 -19.19880054 22.63977087 -19.25 19.875 C-19.28351563 18.92367187 -19.31703125 17.97234375 -19.3515625 16.9921875 C-19.43521719 10.96905017 -19.03617078 7.57090847 -15 3 C-10.27287934 -0.29799116 -5.60351216 -0.90379228 0 0 Z M-143 78 C-147.68489197 87.86744646 -151.89160741 97.8831151 -156 108 C-158.59142802 114.37638441 -161.29867362 120.68340723 -164.15039062 126.94726562 C-168.76368467 137.08100564 -173.03132153 147.31008133 -177.06787109 157.68676758 C-178.32732937 160.8123221 -179.67258395 163.90269588 -181 167 C-155.92 167 -130.84 167 -105 167 C-105.77946346 163.88214616 -106.63521956 161.27913126 -107.86328125 158.34375 C-108.2497583 157.41731689 -108.63623535 156.49088379 -109.03442383 155.53637695 C-109.45618896 154.53437256 -109.8779541 153.53236816 -110.3125 152.5 C-110.96931763 150.93028442 -110.96931763 150.93028442 -111.6394043 149.32885742 C-114.11774139 143.42232067 -116.62508992 137.52860689 -119.15625 131.64453125 C-119.41955612 131.03209564 -119.68286224 130.41966003 -119.95414734 129.78866577 C-121.23193868 126.81821864 -122.51335269 123.84941472 -123.80004883 120.8828125 C-126.18852024 115.3493109 -128.48491073 109.8026855 -130.625 104.16796875 C-132.4589236 99.33976527 -134.4361195 94.64635703 -136.6875 90 C-138.58258498 86.04395828 -140.42473549 82.0972397 -142 78 C-142.33 78 -142.66 78 -143 78 Z M131 79 C125.0018662 92.0766768 119.51571094 105.35119219 114.10107422 118.67724609 C110.99406942 126.30154782 107.75353173 133.8163294 104.25927734 141.27270508 C102.82639481 144.37598751 101.56408636 147.4838105 100.375 150.6875 C98.32924866 156.16460021 96.17441262 161.56396846 94 167 C119.08 167 144.16 167 170 167 C167.70971611 159.12817575 167.70971611 159.12817575 164.80078125 151.66015625 C164.40012451 150.75168945 163.99946777 149.84322266 163.58666992 148.90722656 C163.16619385 147.9684668 162.74571777 147.02970703 162.3125 146.0625 C161.41829381 144.03819172 160.52507961 142.01344498 159.6328125 139.98828125 C158.96813965 138.48322021 158.96813965 138.48322021 158.29003906 136.94775391 C156.0561128 131.84320704 153.9121848 126.70125732 151.77661133 121.55493164 C149.7295032 116.64804996 147.56072044 111.80613848 145.34936523 106.97119141 C142.91307353 101.60667719 140.55482071 96.20771555 138.1875 90.8125 C137.68541016 89.66974609 137.18332031 88.52699219 136.66601562 87.34960938 C135.44338905 84.56667842 134.2213945 81.78347186 133 79 C132.34 79 131.68 79 131 79 Z " fill="#F8F7F3" transform="translate(254,48)"/>
<path d="M0 0 C1.04929687 0.27457031 2.09859375 0.54914063 3.1796875 0.83203125 C17.25797817 5.00973539 29.61447539 12.93374892 41 22 C41.99 22.66 42.98 23.32 44 24 C44 24.66 44 25.32 44 26 C44.66 26 45.32 26 46 26 C46 26.66 46 27.32 46 28 C46.66 28 47.32 28 48 28 C50.51070544 33.85745775 51.42873812 38.46470514 51.34057617 44.80273438 C51.34101425 45.64270966 51.34145233 46.48268494 51.34190369 47.34811401 C51.33983034 50.09690412 51.31656874 52.84506777 51.29296875 55.59375 C51.28736761 57.51045397 51.28309996 59.42716226 51.28010559 61.34387207 C51.26869759 66.36792027 51.23926547 71.39170479 51.20599365 76.41564941 C51.17520527 81.55050084 51.16158157 86.68539521 51.14648438 91.8203125 C51.1143917 101.88032364 51.06324461 111.94013982 51 122 C49.68 122.33 48.36 122.66 47 123 C46.67 122.01 46.34 121.02 46 120 C45.34 120 44.68 120 44 120 C42.80604908 118.55424924 41.61479712 117.10613797 40.44091797 115.64404297 C38.14392979 113.02325029 35.40250404 111.04574081 32.5625 109.0625 C31.95269287 108.63356445 31.34288574 108.20462891 30.71459961 107.76269531 C24.45670714 103.46707101 17.92990114 100.10966898 11 97 C9.84113281 96.46503906 8.68226563 95.93007813 7.48828125 95.37890625 C-2.72075237 90.95315221 -13.07342283 88.84821268 -24 87 C-24.93859863 86.8242041 -25.87719727 86.6484082 -26.84423828 86.46728516 C-32.9519153 85.56289913 -39.14827926 85.71164163 -45.3125 85.6875 C-46.04088074 85.68355225 -46.76926147 85.67960449 -47.51971436 85.67553711 C-59.6077309 85.64506952 -71.11977204 86.82959699 -83.0078125 89.125 C-87.10187708 89.91155199 -90.83898974 90.18442151 -95 90 C-95.19034001 84.62113218 -94.54016787 79.91560228 -93.3125 74.6875 C-93.13243408 73.89899658 -92.95236816 73.11049316 -92.7668457 72.2980957 C-91.37546339 66.32305664 -89.75838027 60.4271155 -88.06982422 54.53051758 C-85.99565221 47.19276286 -84.21361899 39.78974191 -82.4375 32.375 C-82.13642334 31.12098389 -81.83534668 29.86696777 -81.52514648 28.57495117 C-80.26241669 23.30507557 -79.0072589 18.03361351 -77.76953125 12.7578125 C-77.42996291 11.33847575 -77.09014825 9.91919789 -76.75 8.5 C-76.47671875 7.3346875 -76.2034375 6.169375 -75.921875 4.96875 C-74.72335174 1.10909883 -73.47152223 -2.10816834 -69.9375 -4.25 C-48.14940219 -9.81291859 -21.36125377 -5.76809049 0 0 Z " fill="#FAF8F4" transform="translate(193,300)"/>
<path d="M0 0 C6.25636621 -0.13656461 12.45099856 0.29440195 18.67578125 0.875 C19.84306763 0.96744995 19.84306763 0.96744995 21.03393555 1.06176758 C24.30601864 1.40587766 26.67170545 1.73185331 29.30029297 3.78198242 C31.5868227 6.63850752 32.22725728 8.88669497 33.08984375 12.44140625 C33.24989899 13.08622452 33.40995422 13.73104279 33.57485962 14.395401 C34.12480568 16.63498292 34.6511425 18.87936023 35.17578125 21.125 C35.59188033 22.87229074 36.00823313 24.61952107 36.42480469 26.36669922 C37.82125692 32.26043337 39.18669434 38.16120687 40.55078125 44.0625 C45.36235905 64.90803917 45.36235905 64.90803917 50.68896484 85.62670898 C50.90633301 86.45501221 51.12370117 87.28331543 51.34765625 88.13671875 C51.53424805 88.82209717 51.72083984 89.50747559 51.91308594 90.21362305 C52.21826371 92.4341033 51.84469781 94.00252185 51.17578125 96.125 C46.65905831 95.66070612 42.18717591 95.15714597 37.71484375 94.37109375 C-0.23044078 87.94670182 -41.47026889 90.38939381 -73.90234375 112.83203125 C-77.98582413 116.03658069 -81.76601623 119.53375298 -85.46191406 123.17675781 C-88.20523674 125.84402113 -90.06828687 127.40970409 -93.82421875 128.125 C-93.96352752 116.80682086 -94.06999643 105.48884726 -94.13509178 94.16998386 C-94.166342 88.91355059 -94.20869949 83.6577059 -94.27685547 78.40161133 C-94.34227306 73.32465303 -94.37797221 68.24825918 -94.39348221 63.17091179 C-94.40452842 61.23845477 -94.42609946 59.30602701 -94.45859909 57.37381172 C-94.75408179 39.07060616 -94.75408179 39.07060616 -89.32096863 32.61535645 C-88.58007744 31.87763 -88.58007744 31.87763 -87.82421875 31.125 C-87.13199219 30.35027344 -86.43976563 29.57554687 -85.7265625 28.77734375 C-79.56725091 23.40172191 -72.91324649 19.17712326 -65.82421875 15.125 C-65.04820312 14.66222656 -64.2721875 14.19945312 -63.47265625 13.72265625 C-44.58884752 3.2798433 -21.16913643 0.93694656 0 0 Z " fill="#F9F8F4" transform="translate(348.82421875,293.875)"/>
<path d="M0 0 C3.00313835 0.00315609 6.00528332 -0.02039619 9.00830078 -0.0456543 C44.02065091 -0.1591839 78.56049511 7.6896993 106.13330078 30.24926758 C110.09614833 33.35496588 111.48036262 34.34687521 116.64501953 34.22192383 C120.96692007 33.53489343 123.44450815 31.68127406 126.77001953 28.81567383 C133.9022362 22.94364489 141.59253903 18.56689532 149.77001953 14.31567383 C150.68009766 13.83356445 151.59017578 13.35145508 152.52783203 12.85473633 C158.21679388 10.05483974 164.17129139 8.08999416 170.20751953 6.19067383 C170.95098633 5.94873291 171.69445312 5.70679199 172.46044922 5.45751953 C188.53773902 0.62273042 205.06881622 -0.15662834 221.74291992 -0.02050781 C224.83359856 0.0031821 227.92341277 0.00000871 231.01416016 -0.0065918 C240.53475856 0.00638356 249.97733438 0.24738264 259.45361328 1.21020508 C260.22576675 1.28744308 260.99792023 1.36468109 261.79347229 1.44425964 C265.74433455 1.89793191 269.16378781 2.62037589 272.77001953 4.31567383 C272.82415753 6.5654083 272.86287444 8.81551765 272.89501953 11.06567383 C272.91822266 12.31864258 272.94142578 13.57161133 272.96533203 14.86254883 C272.67029654 20.07877632 272.67029654 20.07877632 270.77001953 22.31567383 C266.43481323 23.33144114 262.6292155 23.29214788 258.21533203 22.89379883 C249.28674092 22.18586186 240.37377107 22.09436833 231.42041016 22.07543945 C228.66944825 22.06575978 225.91924431 22.03462263 223.16845703 22.00317383 C196.120598 21.84331472 170.84452972 26.58391637 147.40673828 40.46801758 C145.77001953 41.31567383 145.77001953 41.31567383 143.77001953 41.31567383 C143.77001953 41.97567383 143.77001953 42.63567383 143.77001953 43.31567383 C142.12001953 43.97567383 140.47001953 44.63567383 138.77001953 45.31567383 C138.77001953 45.97567383 138.77001953 46.63567383 138.77001953 47.31567383 C137.19580078 48.75317383 137.19580078 48.75317383 135.08251953 50.31567383 C134.39802734 50.83129883 133.71353516 51.34692383 133.00830078 51.87817383 C127.23742769 55.58442391 122.15947056 55.68132009 115.45751953 55.69067383 C114.54550781 55.71516602 113.63349609 55.7396582 112.69384766 55.76489258 C103.84889462 55.80293539 98.32064006 53.05492619 91.83251953 47.12817383 C74.8625524 32.89680829 53.22501515 26.81902834 31.77001953 23.31567383 C30.73683594 23.13770264 29.70365234 22.95973145 28.63916016 22.77636719 C23.87198496 22.20874606 19.1988075 22.17251819 14.40283203 22.18286133 C13.409841 22.1819046 12.41684998 22.18094788 11.39376831 22.17996216 C9.29424984 22.17928359 7.19472924 22.1811153 5.09521484 22.18530273 C1.93989113 22.19059852 -1.21528649 22.18537636 -4.37060547 22.17895508 C-14.3268285 22.177582 -24.22805129 22.22730609 -34.14987183 23.14205933 C-37.8683702 23.4419621 -39.00271994 23.46718085 -42.22998047 21.31567383 C-43.46136738 18.0778506 -43.49424994 14.69007924 -43.60498047 11.25317383 C-43.65396484 10.21032227 -43.70294922 9.1674707 -43.75341797 8.09301758 C-43.22998047 5.31567383 -43.22998047 5.31567383 -41.18847656 3.71508789 C-37.61178313 2.023257 -34.2601746 1.51602529 -30.37060547 1.14770508 C-29.20032806 1.02864555 -29.20032806 1.02864555 -28.00640869 0.90718079 C-18.6856195 0.0484949 -9.35389985 -0.02044982 0 0 Z " fill="#F7F6F2" transform="translate(134.22998046875,402.684326171875)"/>
<path d="M0 0 C1.38606606 0.00503316 2.77213393 0.0095928 4.15820312 0.01367188 C7.50134975 0.02532047 10.84440011 0.04167571 14.1875 0.0625 C14.19081015 1.12986735 14.19412029 2.19723471 14.19753075 3.29694653 C14.27847677 29.25232383 14.37077752 55.20764175 14.47502708 81.16293621 C14.52517744 93.71465012 14.5716201 106.26635742 14.609375 118.81811523 C14.64228637 129.75651348 14.6821129 140.69486079 14.73029006 151.63320285 C14.75556348 157.42649897 14.77734233 163.21976126 14.79084396 169.01309776 C14.80365657 174.46394555 14.82570248 179.91467736 14.85488319 185.36546135 C14.8639652 187.36775714 14.86965065 189.37007161 14.87171364 191.37238693 C14.87503173 194.10330454 14.89049706 196.83389246 14.9090271 199.56474304 C14.90709237 200.35949608 14.90515763 201.15424912 14.90316427 201.97308558 C14.94491077 206.08036581 15.19175719 209.42512389 17.1875 213.0625 C20.68035855 215.02911812 24.04172555 215.40135968 28 215.6875 C28.97582031 215.76226562 29.95164062 215.83703125 30.95703125 215.9140625 C32.06111328 215.98753906 32.06111328 215.98753906 33.1875 216.0625 C32.8575 216.7225 32.5275 217.3825 32.1875 218.0625 C27.71927097 219.33776708 23.84484557 219.23491851 19.375 218.0625 C15.5920992 215.68891518 13.81991768 213.13115807 12.1875 209.0625 C11.662671 206.16021633 11.66257937 203.34353268 11.70648193 200.40016174 C11.70306423 199.55296898 11.69964653 198.70577622 11.69612527 197.83291095 C11.68956135 195.00747991 11.71149758 192.18300884 11.73339844 189.35766602 C11.73452724 187.32710289 11.73389242 185.29653813 11.73162842 183.26597595 C11.73048162 177.76229029 11.75398569 172.25895394 11.78192425 166.7553494 C11.80694342 161.00048678 11.80928032 155.24561601 11.81402588 149.4907074 C11.8264541 138.59691182 11.85927377 127.70327697 11.89942384 116.80955213 C11.9441462 104.40577907 11.96612978 92.0019983 11.98620558 79.59816468 C12.02800642 54.08618737 12.09835563 28.5743527 12.1875 3.0625 C8.86979354 3.0533027 5.55209043 3.04783058 2.234375 3.04296875 C1.30608887 3.04035034 0.37780273 3.03773193 -0.57861328 3.03503418 C-12.99192945 3.02143502 -25.00335924 3.63782435 -37.19433594 6.04614258 C-40.79148824 6.75394394 -44.14346408 7.2260423 -47.8125 7.0625 C-47.4825 6.4025 -47.1525 5.7425 -46.8125 5.0625 C-44.34380534 4.4467993 -41.93784462 3.93918693 -39.4375 3.5 C-34.06552581 2.53223593 -34.06552581 2.53223593 -28.8125 1.0625 C-19.24102154 -0.10281007 -9.62552801 -0.06182923 0 0 Z " fill="#CAC9C8" transform="translate(222.8125,97.9375)"/>
<path d="M0 0 C0.87454834 0.04713135 1.74909668 0.0942627 2.65014648 0.14282227 C4.06650391 0.21533203 4.06650391 0.21533203 5.51147461 0.28930664 C6.50469727 0.34538086 7.49791992 0.40145508 8.52124023 0.45922852 C9.51833008 0.51143555 10.51541992 0.56364258 11.54272461 0.61743164 C14.01501545 0.74755221 16.48694653 0.88253033 18.95874023 1.02172852 C18.95874023 1.35172852 18.95874023 1.68172852 18.95874023 2.02172852 C12.35874023 2.35172852 5.75874023 2.68172852 -1.04125977 3.02172852 C-1.03459793 5.57666046 -1.0279361 8.13159241 -1.02107239 10.76394653 C-0.95980889 34.80824704 -0.91514123 58.85253727 -0.88582325 82.89689827 C-0.87034917 95.2591777 -0.84924926 107.62139989 -0.81494141 119.98364258 C-0.78505569 130.75757602 -0.7656887 141.531468 -0.75899428 152.30544174 C-0.75508064 158.01107468 -0.74587166 163.71658903 -0.7240696 169.42218399 C-0.70371761 174.79176238 -0.69742341 180.16117322 -0.70193672 185.53078651 C-0.70111095 187.50204567 -0.6951377 189.47331039 -0.68364334 191.44453621 C-0.66871947 194.13576639 -0.67230582 196.82636385 -0.68049622 199.51760864 C-0.67175769 200.29777599 -0.66301917 201.07794335 -0.65401584 201.88175213 C-0.69340115 206.6690795 -1.44750787 209.98144689 -4.04125977 214.02172852 C-5.52625977 215.01172852 -5.52625977 215.01172852 -7.04125977 216.02172852 C-7.04125977 215.03172852 -7.04125977 214.04172852 -7.04125977 213.02172852 C-6.38125977 213.02172852 -5.72125977 213.02172852 -5.04125977 213.02172852 C-3.92720088 208.54379053 -3.89148779 204.15318342 -3.88977051 199.56866455 C-3.8855381 198.71980265 -3.88130569 197.87094076 -3.87694502 196.99635577 C-3.86393441 194.15357457 -3.85789794 191.3108214 -3.85180664 188.46801758 C-3.84386328 186.42951792 -3.83547525 184.39101995 -3.82667542 182.3525238 C-3.8086267 177.96438335 -3.79360841 173.5762466 -3.78089905 169.18808746 C-3.7606851 162.25636905 -3.73303385 155.32469266 -3.70422363 148.39300537 C-3.63902613 132.43307467 -3.58353719 116.47311297 -3.52823639 100.51314545 C-3.477437 85.87617484 -3.42461261 71.23921957 -3.36371088 56.60228705 C-3.3352937 49.70402289 -3.31172314 42.80576388 -3.29178619 35.90747023 C-3.27844322 31.62778835 -3.26102923 27.34813025 -3.24247551 23.06846809 C-3.23468992 21.07576915 -3.22863338 19.08306263 -3.2243824 17.09035301 C-3.21837742 14.38248038 -3.20635027 11.6747014 -3.19274902 8.96685791 C-3.19245304 8.16775505 -3.19215705 7.3686522 -3.19185209 6.5453341 C-3.14791586 0.03350849 -3.14791586 0.03350849 0 0 Z " fill="#CAC9C8" transform="translate(264.041259765625,97.978271484375)"/>
<path d="M0 0 C3.09067864 0.02368991 6.18049284 0.02051652 9.27124023 0.01391602 C18.79183864 0.02689137 28.23441446 0.26789045 37.71069336 1.23071289 C38.86892357 1.3465699 38.86892357 1.3465699 40.05055237 1.46476746 C44.00141463 1.91843973 47.42086788 2.6408837 51.02709961 4.33618164 C51.0812376 6.58591611 51.11995452 8.83602547 51.15209961 11.08618164 C51.17530273 12.33915039 51.19850586 13.59211914 51.22241211 14.88305664 C51.04247263 18.06438657 50.71708543 19.7014006 49.02709961 22.33618164 C47.37709961 22.33618164 45.72709961 22.33618164 44.02709961 22.33618164 C45.34709961 22.00618164 46.66709961 21.67618164 48.02709961 21.33618164 C48.02709961 16.38618164 48.02709961 11.43618164 48.02709961 6.33618164 C44.71678711 5.87211914 44.71678711 5.87211914 41.33959961 5.39868164 C40.09823242 5.2246582 38.85686523 5.05063477 37.57788086 4.87133789 C25.80694576 3.40852644 14.05952298 3.0978445 2.21459961 3.08618164 C1.40738464 3.08484222 0.60016968 3.08350281 -0.23150635 3.0821228 C-10.50217192 3.08580223 -20.64223122 3.36859611 -30.84790039 4.64868164 C-32.26099487 4.82512207 -32.26099487 4.82512207 -33.70263672 5.00512695 C-38.94151921 5.76358407 -43.18776465 7.0899756 -47.97290039 9.33618164 C-52.00223936 10.61980411 -55.71430089 11.33618164 -59.97290039 11.33618164 C-59.97290039 11.99618164 -59.97290039 12.65618164 -59.97290039 13.33618164 C-64.09347499 15.33403599 -67.42484404 15.51453679 -71.97290039 15.33618164 C-56.30634578 -0.33037297 -20.30977833 -0.16580068 0 0 Z " fill="#D3D3D0" transform="translate(355.972900390625,402.663818359375)"/>
<path d="M0 0 C0.33 0 0.66 0 1 0 C1.33 5.28 1.66 10.56 2 16 C4.05226807 15.75552124 4.05226807 15.75552124 6.14599609 15.50610352 C12.65534877 14.85848097 19.12797818 14.87462579 25.6640625 14.90234375 C26.93728363 14.9037587 28.21050476 14.90517365 29.52230835 14.90663147 C32.87264978 14.91124995 36.22292027 14.92020115 39.57324219 14.93133545 C43.00585321 14.9416488 46.43847163 14.94615014 49.87109375 14.95117188 C56.5807484 14.96214946 63.29037012 14.97884865 70 15 C70 15.66 70 16.32 70 17 C70.845625 16.97679687 71.69125 16.95359375 72.5625 16.9296875 C81.30082769 16.79066865 87.84526315 17.48542947 95.859375 21.13671875 C100.77339171 23.11846637 105.9235241 24.49614173 111 26 C111 26.66 111 27.32 111 28 C107.44564475 27.38835187 104.10387772 26.42203963 100.68334961 25.28613281 C91.88583879 22.37192372 83.15141756 20.46106774 74 19 C72.98413818 18.82581543 71.96827637 18.65163086 70.92163086 18.47216797 C66.13509334 17.89586444 61.44878604 17.85680123 56.6328125 17.8671875 C55.63982147 17.86623077 54.64683044 17.86527405 53.62374878 17.86428833 C51.52423031 17.86360976 49.42470971 17.86544147 47.32519531 17.86962891 C44.1698716 17.87492469 41.01469398 17.86970253 37.859375 17.86328125 C27.90315197 17.86190817 18.00192918 17.91163227 8.08010864 18.8263855 C4.36161027 19.12628827 3.22726053 19.15150702 0 17 C-1.29103565 13.69821344 -1.13354645 10.32081885 -1.125 6.8125 C-1.12757812 5.74644531 -1.13015625 4.68039062 -1.1328125 3.58203125 C-1 1 -1 1 0 0 Z " fill="#CCCAC8" transform="translate(92,407)"/>
<path d="M0 0 C3.48330216 0.64505596 6.09432866 1.98217268 9 4 C9 4.66 9 5.32 9 6 C9.66 6 10.32 6 11 6 C11 6.66 11 7.32 11 8 C11.99 8.33 12.98 8.66 14 9 C14 9.66 14 10.32 14 11 C16.97 11.495 16.97 11.495 20 12 C20 12.66 20 13.32 20 14 C21.06734375 14.17208984 21.06734375 14.17208984 22.15625 14.34765625 C25.18600757 15.04266932 27.68185009 16.13294434 30.5 17.4375 C49.41203074 25.35948866 75.08678541 24.35658218 94.03515625 16.74072266 C99.37616072 14.87524824 99.37616072 14.87524824 103 11 C103.99 11 104.98 11 106 11 C106 10.34 106 9.68 106 9 C106.99 9 107.98 9 109 9 C109 8.34 109 7.68 109 7 C111.475 6.505 111.475 6.505 114 6 C103.56295021 17.82865643 86.06169582 23.82432423 70.72631836 25.3190918 C67.43601429 25.47134939 64.16871758 25.51874571 60.875 25.5 C59.12110962 25.49250732 59.12110962 25.49250732 57.33178711 25.48486328 C37.08193728 25.08239214 19.36533918 18.30582836 4 5 C2.62347812 3.36882157 1.27532489 1.71146194 0 0 Z " fill="#BAB9B8" transform="translate(326,240)"/>
<path d="M0 0 C5.32216111 0.9723179 10.57469373 2.12199485 15.81518555 3.47045898 C32.71292069 7.81456086 49.31773088 9.18329121 66.75 8.9375 C79.28760326 8.86296015 79.28760326 8.86296015 84.0625 12.625 C85.44501213 16.12736407 85.7764532 19.34268773 85 23 C82.59906707 26.22410993 81.05749882 27.69450034 77.1875 28.8125 C76.465625 28.874375 75.74375 28.93625 75 29 C75.99 32.96 75.99 32.96 77 37 C76.34 37 75.68 37 75 37 C72.15549386 33.28026121 71.6772494 30.62609198 72 26 C75.65720457 24.94503714 79.30685628 23.92328593 83 23 C82.505 18.545 82.505 18.545 82 14 C78.08162303 13.02040576 74.89940763 12.84444892 70.875 12.7890625 C69.44017159 12.76321488 68.00535731 12.73657296 66.57055664 12.70922852 C65.82323273 12.69594513 65.07590881 12.68266174 64.30593872 12.66897583 C53.49876361 12.4628756 42.76430025 12.21697372 32.0625 10.5625 C31.26650391 10.4402002 30.47050781 10.31790039 29.65039062 10.19189453 C26.16764439 9.59139412 23.98051349 8.98700899 21 7 C18.78500479 6.36499102 18.78500479 6.36499102 16.33203125 5.9296875 C15.43935547 5.75566406 14.54667969 5.58164063 13.62695312 5.40234375 C12.69818359 5.22832031 11.76941406 5.05429688 10.8125 4.875 C9.87212891 4.69324219 8.93175781 4.51148437 7.96289062 4.32421875 C5.64302171 3.87673135 3.32212941 3.43557758 1 3 C0.67 2.01 0.34 1.02 0 0 Z " fill="#D1CFCC" transform="translate(326,84)"/>
<path d="M0 0 C1 3 1 3 -1 8 C23.75 8.33 48.5 8.66 74 9 C74 8.34 74 7.68 74 7 C74.66 7 75.32 7 76 7 C76.495 9.475 76.495 9.475 77 12 C50.6 12 24.2 12 -3 12 C-2 3 -2 3 0 0 Z " fill="#D6D5D2" transform="translate(350,206)"/>
<path d="M0 0 C0.33 0 0.66 0 1 0 C1 28.38 1 56.76 1 86 C1.99 85.505 1.99 85.505 3 85 C3.33 84.01 3.66 83.02 4 82 C7.5625 80.8125 7.5625 80.8125 11 80 C10.06409496 81.1055189 9.12620142 82.20935453 8.1875 83.3125 C7.40439453 84.23482422 7.40439453 84.23482422 6.60546875 85.17578125 C5.81076172 86.07876953 5.81076172 86.07876953 5 87 C4.50113281 87.57105469 4.00226563 88.14210938 3.48828125 88.73046875 C2 90 2 90 -1 90 C-1.02313425 78.56077057 -1.04092063 67.12154668 -1.05181217 55.68229866 C-1.05703862 50.37103578 -1.06413198 45.05978885 -1.07543945 39.74853516 C-1.08627675 34.62627886 -1.09227864 29.50403796 -1.09487724 24.38177109 C-1.09672996 22.4240787 -1.10034767 20.46638719 -1.10573006 18.50870132 C-1.11295164 15.77417405 -1.11399046 13.039711 -1.11352539 10.30517578 C-1.11712067 9.48950134 -1.12071594 8.6738269 -1.12442017 7.83343506 C-1.11405216 2.22810432 -1.11405216 2.22810432 0 0 Z " fill="#C7C6C4" transform="translate(256,332)"/>
<path d="M0 0 C0.33 0 0.66 0 1 0 C1 28.05 1 56.1 1 85 C-0.98 85.495 -0.98 85.495 -3 86 C-3.33 85.01 -3.66 84.02 -4 83 C-4.66 83 -5.32 83 -6 83 C-7.2890625 81.46875 -7.2890625 81.46875 -8.625 79.5 C-9.07101563 78.8503125 -9.51703125 78.200625 -9.9765625 77.53125 C-10.48316406 76.77328125 -10.48316406 76.77328125 -11 76 C-6.25 76.875 -6.25 76.875 -4 78 C-3.67 78.99 -3.34 79.98 -3 81 C-2.34 81.33 -1.68 81.66 -1 82 C-1.00222061 80.98744644 -1.00444122 79.97489288 -1.00672913 78.93165588 C-1.02696054 69.4106235 -1.04197214 59.88959545 -1.05181217 50.36854649 C-1.057041 45.47314626 -1.06413864 40.57776332 -1.07543945 35.68237305 C-1.08626834 30.96212022 -1.09227684 26.24188408 -1.09487724 21.5216198 C-1.09673149 19.71661046 -1.10035209 17.91160208 -1.10573006 16.10659981 C-1.11294052 13.58740356 -1.11399094 11.0682771 -1.11352539 8.54907227 C-1.11712067 7.79525772 -1.12071594 7.04144318 -1.12442017 6.26478577 C-1.11405216 1.11405216 -1.11405216 1.11405216 0 0 Z " fill="#BFBDBC" transform="translate(243,337)"/>
<path d="M0 0 C0.33 0.66 0.66 1.32 1 2 C-0.32 4.97 -1.64 7.94 -3 11 C21.75 11.33 46.5 11.66 72 12 C71.505 10.02 71.505 10.02 71 8 C71.66 8 72.32 8 73 8 C73 9.98 73 11.96 73 14 C33.895 14.495 33.895 14.495 -6 15 C-7 11 -7 11 -6.22265625 9.078125 C-4.61132812 6.5390625 -4.61132812 6.5390625 -3 4 C-2.34 4 -1.68 4 -1 4 C-0.67 2.68 -0.34 1.36 0 0 Z " fill="#CFCECC" transform="translate(77,203)"/>
<path d="M0 0 C0 0.66 0 1.32 0 2 C-1.31088682 2.31919939 -2.62385248 2.62985947 -3.9375 2.9375 C-4.66839844 3.11152344 -5.39929688 3.28554687 -6.15234375 3.46484375 C-16.34261105 5.37988712 -26.68619834 5.29775058 -37.01806641 5.47680664 C-39.21543462 5.5165985 -41.41229194 5.56806017 -43.609375 5.62109375 C-44.90842773 5.6461499 -46.20748047 5.67120605 -47.54589844 5.69702148 C-50.7973972 5.98222858 -53.07709867 6.59982242 -56 8 C-56.33 10.64 -56.66 13.28 -57 16 C-56.319375 16.103125 -55.63875 16.20625 -54.9375 16.3125 C-51.37084011 17.14725019 -48.33777806 18.49472754 -45 20 C-45.3125 22.375 -45.3125 22.375 -46 25 C-46.99 25.66 -47.98 26.32 -49 27 C-48.67 25.35 -48.34 23.7 -48 22 C-48.886875 21.95875 -49.77375 21.9175 -50.6875 21.875 C-55.16431376 20.69244542 -56.52899286 18.85186407 -59 15 C-59.71577218 11.10301814 -59.35174086 9.58623476 -57.3125 6.1875 C-52.97563406 2.08505924 -46.85666002 2.74898798 -41.15625 2.5 C-39.88618103 2.4390918 -39.88618103 2.4390918 -38.5904541 2.37695312 C-34.98226869 2.20403424 -31.37369453 2.03993319 -27.76513672 1.875 C-25.12452128 1.75304482 -22.48414499 1.62662439 -19.84375 1.5 C-18.62637146 1.44682617 -18.62637146 1.44682617 -17.38439941 1.39257812 C-11.50848965 1.11013309 -5.88457106 -0.13685049 0 0 Z " fill="#CECCCA" transform="translate(145,91)"/>
<path d="M0 0 C0.66 0.66 1.32 1.32 2 2 C-0.97 1.67 -3.94 1.34 -7 1 C-7 1.66 -7 2.32 -7 3 C-9.65228812 4.07525194 -12.28368454 5.09456151 -15 6 C-16.70469437 14.52347187 -16.58655088 23.31756858 -17 32 C-31.19 32 -45.38 32 -60 32 C-60 31.67 -60 31.34 -60 31 C-54.9283855 30.16293741 -50.02235861 29.86482595 -44.87890625 29.90234375 C-44.13414536 29.9037587 -43.38938446 29.90517365 -42.62205505 29.90663147 C-40.26882727 29.91218011 -37.9156985 29.92472267 -35.5625 29.9375 C-33.95638159 29.94252165 -32.35026168 29.94708339 -30.74414062 29.95117188 C-26.82938957 29.96213265 -22.91471151 29.97936116 -19 30 C-19.02094727 29.39526855 -19.04189453 28.79053711 -19.06347656 28.16748047 C-19.14708945 25.40349229 -19.19880054 22.63977087 -19.25 19.875 C-19.28351563 18.92367187 -19.31703125 17.97234375 -19.3515625 16.9921875 C-19.43521719 10.96905017 -19.03617078 7.57090847 -15 3 C-10.35015377 -0.24407876 -5.53961189 -0.85310023 0 0 Z " fill="#D5D5D4" transform="translate(254,48)"/>
<path d="M0 0 C0.99 0.33 1.98 0.66 3 1 C-7.10564326 10.62442215 -18.54901123 15.8590699 -32 19 C-32.64324219 19.18304688 -33.28648437 19.36609375 -33.94921875 19.5546875 C-47.05727529 22.40100835 -61.03007818 20.77027456 -74 18 C-74 17.67 -74 17.34 -74 17 C-73.05382812 17.01571045 -72.10765625 17.0314209 -71.1328125 17.04760742 C-67.53947862 17.10291913 -63.94618005 17.1367079 -60.35253906 17.16479492 C-58.81276066 17.1796558 -57.27302277 17.19995039 -55.73339844 17.22631836 C-41.87119611 17.45735506 -28.37526225 16.8751457 -16 10 C-12.5 9.25 -12.5 9.25 -10 9 C-10 8.34 -10 7.68 -10 7 C-7.525 6.505 -7.525 6.505 -5 6 C-5 5.34 -5 4.68 -5 4 C-4.01 4 -3.02 4 -2 4 C-1.34 2.68 -0.68 1.36 0 0 Z " fill="#C1C0BE" transform="translate(163,245)"/>
<path d="M0 0 C0.33 0 0.66 0 1 0 C1.97909775 13.46259406 -3.27482542 27.21134264 -7 40 C-8.30727793 44.64900713 -9.21185218 49.28974321 -9.9375 54.0625 C-10.69282825 58.83013193 -11.8462038 62.6924076 -14 67 C-12.02 67 -10.04 67 -8 67 C-8 67.33 -8 67.66 -8 68 C-10.31 68 -12.62 68 -15 68 C-15.19034064 62.62111443 -14.54013993 57.91563231 -13.3125 52.6875 C-13.13315918 51.90189697 -12.95381836 51.11629395 -12.76904297 50.30688477 C-11.35822624 44.24714282 -9.72118424 38.26459771 -8.00830078 32.28442383 C-4.98561913 21.61470502 -2.53264839 10.79424974 0 0 Z " fill="#C6C5C2" transform="translate(113,322)"/>
<path d="M0 0 C0.66 0.33 1.32 0.66 2 1 C-1.34847413 5.60415193 -5.3571375 9.6918413 -10 13 C-10.99 13 -11.98 13 -13 13 C-14.06566211 17.36194822 -14.17100658 21.63050932 -14.20532227 26.0949707 C-14.21522186 26.89549362 -14.22512146 27.69601654 -14.23532104 28.52079773 C-14.26680277 31.15576258 -14.29164055 33.79074544 -14.31640625 36.42578125 C-14.3369873 38.25709999 -14.35798407 40.0884141 -14.37937927 41.91972351 C-14.43448111 46.73158004 -14.48394267 51.54347859 -14.53222656 56.35540771 C-14.58252855 61.26887741 -14.63816916 66.18228634 -14.69335938 71.09570312 C-14.80079548 80.73041679 -14.90227257 90.3651833 -15 100 C-15.33 100 -15.66 100 -16 100 C-16.18577367 89.07310667 -16.32771556 78.14659205 -16.41449738 67.21843815 C-16.45615984 62.143347 -16.51262231 57.06934018 -16.60351562 51.99487305 C-16.69076415 47.09292975 -16.73834133 42.1920259 -16.75901794 37.28936577 C-16.77374255 35.42381878 -16.80249788 33.5583255 -16.84584045 31.69322395 C-17.21246985 15.25523961 -17.21246985 15.25523961 -12.23242188 9.50561523 C-10.1619873 7.63206482 -10.1619873 7.63206482 -8 6 C-7.21210083 5.36961319 -6.42420166 4.73922638 -5.61242676 4.08973694 C-3.78025376 2.65670079 -1.92445995 1.30515236 0 0 Z " fill="#F1F0EC" transform="translate(273,315)"/>
<path d="M0 0 C7.0228125 0.0309375 7.0228125 0.0309375 14.1875 0.0625 C14.1875 10.2925 14.1875 20.5225 14.1875 31.0625 C13.8575 31.0625 13.5275 31.0625 13.1875 31.0625 C13.1875 21.1625 13.1875 11.2625 13.1875 1.0625 C9.743125 1.206875 6.29875 1.35125 2.75 1.5 C1.66275635 1.54310303 0.5755127 1.58620605 -0.54467773 1.63061523 C-1.82000366 1.6877771 -1.82000366 1.6877771 -3.12109375 1.74609375 C-3.99564209 1.78275146 -4.87019043 1.81940918 -5.77124023 1.85717773 C-7.8052402 1.84431066 -7.8052402 1.84431066 -8.8125 3.0625 C-11.31528665 3.22651757 -13.80690507 3.34338928 -16.3125 3.4375 C-23.40426167 3.76419402 -30.22819539 4.66723947 -37.18945312 6.04638672 C-40.7883925 6.75238622 -44.14189226 7.22611236 -47.8125 7.0625 C-47.4825 6.4025 -47.1525 5.7425 -46.8125 5.0625 C-44.34380534 4.4467993 -41.93784462 3.93918693 -39.4375 3.5 C-34.06552581 2.53223593 -34.06552581 2.53223593 -28.8125 1.0625 C-19.24033942 -0.10289312 -9.62628432 -0.06052919 0 0 Z " fill="#E8E7E4" transform="translate(222.8125,97.9375)"/>
<path d="M0 0 C0.33 0 0.66 0 1 0 C1.53251766 1.91345327 2.05059483 3.8309295 2.5625 5.75 C2.85253906 6.81734375 3.14257812 7.8846875 3.44140625 8.984375 C3.98742254 11.93209929 3.82156762 13.21769433 3 16 C-1.45084791 15.54520106 -5.85035605 15.0613339 -10.25 14.24609375 C-29.64868639 10.84023334 -49.38199869 11.72647574 -69 12 C-66.1607053 10.39715147 -64.11035762 9.74656766 -60.85595703 9.7253418 C-60.04569061 9.71593063 -59.23542419 9.70651947 -58.40060425 9.69682312 C-57.09242233 9.69800896 -57.09242233 9.69800896 -55.7578125 9.69921875 C-54.84500519 9.69384598 -53.93219788 9.68847321 -52.99172974 9.68293762 C-50.03601129 9.67157418 -47.08072018 9.67793959 -44.125 9.6875 C-43.12867554 9.68766113 -42.13235107 9.68782227 -41.10583496 9.68798828 C-26.85230716 9.70413632 -13.01709297 10.18316792 1 13 C0.83701416 12.38866211 0.67402832 11.77732422 0.50610352 11.14746094 C-0.05298003 8.77519905 -0.09828719 6.68352885 -0.0625 4.25 C-0.05347656 3.45078125 -0.04445313 2.6515625 -0.03515625 1.828125 C-0.02355469 1.22484375 -0.01195312 0.6215625 0 0 Z " fill="#BFBDB8" transform="translate(397,374)"/>
<path d="M0 0 C-3.49680148 1.16560049 -5.07556811 0.76137885 -8.6640625 0.078125 C-15.88962258 -1.1111193 -22.95995803 -1.30453107 -30.25585938 -1.26074219 C-32.36617989 -1.25004471 -34.47564292 -1.26069536 -36.5859375 -1.2734375 C-44.79855472 -1.28060112 -52.69734724 -0.68572851 -60.81494141 0.57128906 C-63.59857948 0.94596854 -66.19796218 1.08301358 -69 1 C-69 0.34 -69 -0.32 -69 -1 C-49.10260826 -4.93266096 -18.63014765 -9.73848627 0 0 Z " fill="#CBC8C5" transform="translate(179,387)"/>
<path d="M0 0 C-0.87204323 0.01213028 -0.87204323 0.01213028 -1.76170349 0.02450562 C-7.84582346 0.11096942 -13.92963317 0.21048817 -20.01342773 0.31738281 C-22.27997604 0.35552223 -24.54658177 0.39040057 -26.81323242 0.421875 C-30.08272746 0.4678534 -33.35183225 0.52579266 -36.62109375 0.5859375 C-37.62458359 0.59748871 -38.62807343 0.60903992 -39.66197205 0.62094116 C-44.97673223 0.73090768 -49.84012644 1.19886351 -54.98573303 2.56484985 C-58.34339508 3.29021901 -61.57840453 3.12442165 -65 3 C-62.14005396 1.09336931 -61.03171982 0.66091234 -57.7890625 0.18359375 C-56.96277344 0.05960205 -56.13648438 -0.06438965 -55.28515625 -0.19213867 C-54.40730469 -0.31435791 -53.52945312 -0.43657715 -52.625 -0.5625 C-51.27341797 -0.75646362 -51.27341797 -0.75646362 -49.89453125 -0.9543457 C-11.76594399 -6.2829385 -11.76594399 -6.2829385 0 0 Z " fill="#D1D0CF" transform="translate(375,297)"/>
<path d="M0 0 C2.13411033 0.01006197 4.26822531 0.01918206 6.40234375 0.02734375 C11.5600138 0.04907457 16.71745334 0.08342236 21.875 0.125 C21.875 0.455 21.875 0.785 21.875 1.125 C11.18164017 2.05633162 0.51028877 2.44069255 -10.21679688 2.73046875 C-16.49641362 2.916389 -22.69416719 3.22029173 -28.93774414 3.91552734 C-32.22297094 4.23015226 -35.44953377 4.21985751 -38.75 4.1875 C-39.95914063 4.17847656 -41.16828125 4.16945313 -42.4140625 4.16015625 C-43.30867188 4.14855469 -44.20328125 4.13695312 -45.125 4.125 C-41.57754953 1.76003302 -38.57327384 1.4425682 -34.4453125 1.0078125 C-33.26692307 0.88105637 -33.26692307 0.88105637 -32.06472778 0.7517395 C-21.39743792 -0.276363 -10.70399526 -0.08896217 0 0 Z " fill="#D5D4D2" transform="translate(138.125,402.875)"/>
<path d="M0 0 C0.33 0 0.66 0 1 0 C1.33 5.28 1.66 10.56 2 16 C4.05226807 15.75552124 4.05226807 15.75552124 6.14599609 15.50610352 C12.65534877 14.85848097 19.12797818 14.87462579 25.6640625 14.90234375 C26.93728363 14.9037587 28.21050476 14.90517365 29.52230835 14.90663147 C32.87264978 14.91124995 36.22292027 14.92020115 39.57324219 14.93133545 C43.00585321 14.9416488 46.43847163 14.94615014 49.87109375 14.95117188 C56.5807484 14.96214946 63.29037012 14.97884865 70 15 C70 15.33 70 15.66 70 16 C69.00854225 16.01213028 69.00854225 16.01213028 67.99705505 16.02450562 C61.10225561 16.11072808 54.20773782 16.21023936 47.31323242 16.31738281 C44.74199157 16.35560724 42.17069844 16.3904714 39.59936523 16.421875 C35.89808499 16.46766698 32.19716264 16.52563923 28.49609375 16.5859375 C27.35103867 16.59748871 26.20598358 16.60903992 25.02622986 16.62094116 C19.28125442 16.72657853 14.44039409 17.15729321 9 19 C4.82165098 19.32141146 3.54540401 19.36360267 0 17 C-1.29103565 13.69821344 -1.13354645 10.32081885 -1.125 6.8125 C-1.12757812 5.74644531 -1.13015625 4.68039062 -1.1328125 3.58203125 C-1 1 -1 1 0 0 Z " fill="#E2DFDE" transform="translate(92,407)"/>
<path d="M0 0 C2.7684353 2.7684353 3.77626401 6.10588579 5.1875 9.6875 C7.48962803 15.41645982 9.89894557 21.05487152 12.5625 26.625 C17.72406086 37.47666325 21.9965209 48.67250914 26 60 C25.34 60 24.68 60 24 60 C20.58548095 53.56876994 17.63101416 47.39110974 15.703125 40.36328125 C14.00161298 34.6443103 11.19621022 29.36394402 8.5 24.0625 C2 11.20336687 2 11.20336687 2 7 C1.34 7 0.68 7 0 7 C0 4.69 0 2.38 0 0 Z " fill="#CFCFCC" transform="translate(414,147)"/>
<path d="M0 0 C0 0.33 0 0.66 0 1 C-25.245 1.495 -25.245 1.495 -51 2 C-51 2.66 -51 3.32 -51 4 C-52.98 4.99 -52.98 4.99 -55 6 C-54.14856257 3.05867069 -53.64751946 1.40469966 -51 -0.25 C-34.56483505 -4.35879124 -16.59841184 -1.72594105 0 0 Z " fill="#D6D5D3" transform="translate(174,296)"/>
<path d="M0 0 C11.99155152 2.7187855 22.57076486 10.46286677 32 18 C32.99 18.66 33.98 19.32 35 20 C35 20.66 35 21.32 35 22 C35.66 22 36.32 22 37 22 C37 22.66 37 23.32 37 24 C37.66 24 38.32 24 39 24 C40.76462683 27.08809695 41 28.23312136 41 32 C40.34 32 39.68 32 39 32 C39 30.35 39 28.7 39 27 C38.01 26.67 37.02 26.34 36 26 C36 25.34 36 24.68 36 24 C35.01 23.67 34.02 23.34 33 23 C33 22.34 33 21.68 33 21 C32.01 20.67 31.02 20.34 30 20 C30 19.34 30 18.68 30 18 C29.21625 17.814375 28.4325 17.62875 27.625 17.4375 C24.2805227 16.11124176 22.11521159 14.73549497 19.25 12.625 C14.44070771 9.12401063 9.60810241 6.92107338 4 5 C4 4.34 4 3.68 4 3 C2.68 2.34 1.36 1.68 0 1 C0 0.67 0 0.34 0 0 Z " fill="#DCDBD9" transform="translate(202,304)"/>
<path d="M0 0 C-3.28294113 2.18862742 -5.26239558 2.54971849 -9.125 3.125 C-10.20007813 3.29257813 -11.27515625 3.46015625 -12.3828125 3.6328125 C-16.60843697 4.06176358 -20.75776096 4.07556151 -25 4 C-24.72736328 4.62044189 -24.45472656 5.24088379 -24.17382812 5.88012695 C-22.94354969 8.68847408 -21.72169183 11.50040755 -20.5 14.3125 C-20.07074219 15.28896484 -19.64148438 16.26542969 -19.19921875 17.27148438 C-18.79316406 18.20927734 -18.38710937 19.14707031 -17.96875 20.11328125 C-17.59169922 20.97735596 -17.21464844 21.84143066 -16.82617188 22.73168945 C-16 25 -16 25 -16 28 C-16.99 27.67 -17.98 27.34 -19 27 C-20.0625 24.48828125 -20.0625 24.48828125 -21 21.3125 C-22.0549477 17.89301434 -23.05943043 14.88334027 -24.6875 11.6875 C-26.26040662 8.46678645 -26.55622097 5.53778985 -27 2 C-17.87995448 0.46859805 -9.25599658 -0.27675737 0 0 Z " fill="#C6C4C3" transform="translate(151,110)"/>
<path d="M0 0 C1.7261878 5.42856301 -0.85250389 9.76238259 -3.328125 14.58984375 C-3.81796875 15.52957031 -4.3078125 16.46929687 -4.8125 17.4375 C-8.68625058 25.00053684 -11.31332078 32.95901682 -14 41 C-14.66 41 -15.32 41 -16 41 C-16.12375 41.721875 -16.2475 42.44375 -16.375 43.1875 C-16.9904931 45.95721894 -17.88444374 48.3970354 -19 51 C-19.66 51 -20.32 51 -21 51 C-19.93311434 46.3709668 -18.14085926 42.08713443 -16.375 37.6875 C-16.01817139 36.79611328 -15.66134277 35.90472656 -15.29370117 34.98632812 C-12.61174007 28.35716181 -9.69020118 21.88495684 -6.609375 15.43359375 C-4.23159664 10.36061517 -2.09869058 5.19353384 0 0 Z " fill="#CDCCCA" transform="translate(88,134)"/>
<path d="M0 0 C0.99 0.33 1.98 0.66 3 1 C3.33 2.98 3.66 4.96 4 7 C3.01 7.495 3.01 7.495 2 8 C1.34 6.68 0.68 5.36 0 4 C-0.20568604 4.52730713 -0.41137207 5.05461426 -0.62329102 5.59790039 C-5.05474191 16.91917014 -9.69528744 28.05903034 -15 39 C-16.35843713 35.30783754 -15.62041477 33.11471722 -14.25 29.5 C-13.90453125 28.5615625 -13.5590625 27.623125 -13.203125 26.65625 C-12.04817017 24.10634974 -10.69378232 22.20846756 -9 20 C-8.53595545 18.4089901 -8.07754993 16.81582939 -7.6640625 15.2109375 C-6.20149437 10.34144596 -4.24389682 5.55971341 -2 1 C-1.34 0.67 -0.68 0.34 0 0 Z " fill="#D2D1CF" transform="translate(111,123)"/>
<path d="M0 0 C0.33 0 0.66 0 1 0 C1.36455002 6.31886706 1.36455002 6.31886706 -0.1875 9.21875 C-2 11 -2 11 -4.48046875 11.390625 C-5.82044922 11.32101563 -5.82044922 11.32101563 -7.1875 11.25 C-8.08855469 11.21390625 -8.98960938 11.1778125 -9.91796875 11.140625 C-10.60503906 11.09421875 -11.29210938 11.0478125 -12 11 C-10.83405503 17.02404902 -9.19275733 22.32094724 -6.70703125 27.93359375 C-6.47371094 28.61550781 -6.24039063 29.29742187 -6 30 C-6.33 30.66 -6.66 31.32 -7 32 C-11.42747981 25.86000442 -15.17228668 20.56559705 -14.875 12.6875 C-14 10 -14 10 -12.375 8.625 C-9.2052173 7.79084666 -6.26096908 7.87457811 -3 8 C-2.690625 7.05125 -2.38125 6.1025 -2.0625 5.125 C-1 2 -1 2 0 0 Z " fill="#CCCBCB" transform="translate(57,207)"/>
<path d="M0 0 C2.52113092 -0.05447822 5.0410585 -0.09389852 7.5625 -0.125 C8.26697266 -0.14175781 8.97144531 -0.15851563 9.69726562 -0.17578125 C14.50266934 -0.22007069 18.36388611 0.6149808 23 2 C26.63288856 2.34301952 30.24554995 2.49980901 33.890625 2.65625 C37 3 37 3 40 5 C41.65549531 5.38499891 43.3222433 5.72793135 45 6 C44.67 6.66 44.34 7.32 44 8 C38.86669069 7.40704348 33.87687606 6.61011477 28.8125 5.5625 C18.96323947 3.60776737 8.99721649 2.81220093 -1 2 C-0.67 1.34 -0.34 0.68 0 0 Z " fill="#D3D1CF" transform="translate(285,99)"/>
<path d="M0 0 C3.83856616 1.78227991 5.33703244 2.97901652 7 7 C7.35328995 10.61545778 7.28179654 14.18444751 7.1875 17.8125 C7.125625 21.174375 7.06375 24.53625 7 28 C17.89 28 28.78 28 40 28 C40 28.33 40 28.66 40 29 C28.45 29 16.9 29 5 29 C4.75 19 4.75 19 4.70214844 15.8984375 C4.47018333 9.58898645 3.21007743 5.44429131 0 0 Z " fill="#C7C7C5" transform="translate(256,50)"/>
<path d="M0 0 C0.66 0.33 1.32 0.66 2 1 C-2.06130313 5.48143794 -6.75243763 8.82927382 -11.671875 12.328125 C-13.8536613 13.79969527 -13.8536613 13.79969527 -15 15 C-17.14453125 15.203125 -17.14453125 15.203125 -19.8125 15.25 C-20.68519531 15.27578125 -21.55789062 15.3015625 -22.45703125 15.328125 C-25.47001602 14.93935277 -26.82516931 14.08864858 -29 12 C-29 11.34 -29 10.68 -29 10 C-29.66 10 -30.32 10 -31 10 C-30.67 9.34 -30.34 8.68 -30 8 C-27.65625 9.61132812 -27.65625 9.61132812 -25.3125 11.22265625 C-21.74243904 12.42272742 -18.54429129 12.03131698 -15 11 C-12.46421118 9.59923025 -10.32435897 7.8762304 -8.125 6 C-7.00341592 5.0823403 -5.88105502 4.16562898 -4.7578125 3.25 C-3.84773438 2.5075 -2.93765625 1.765 -2 1 C-1.34 0.67 -0.68 0.34 0 0 Z " fill="#DAD9D6" transform="translate(270,425)"/>
<path d="M0 0 C2.14261678 2.14261678 2.85907836 3.70090949 4.0234375 6.47265625 C4.405 7.37306641 4.7865625 8.27347656 5.1796875 9.20117188 C5.57414063 10.14541016 5.96859375 11.08964844 6.375 12.0625 C7.15306009 13.90779917 7.93170118 15.75285348 8.7109375 17.59765625 C9.27893066 18.95141357 9.27893066 18.95141357 9.85839844 20.33251953 C11.26842037 23.62719438 12.76455323 26.87897877 14.28759766 30.12280273 C15 32 15 32 15 35 C14.01 34.67 13.02 34.34 12 34 C10.88272162 31.66414332 9.94729327 29.4221361 9.0625 27 C8.53903332 25.62841977 8.01429631 24.25732367 7.48828125 22.88671875 C7.2351416 22.21946777 6.98200195 21.5522168 6.72119141 20.86474609 C5.02153286 16.47002979 3.14233073 12.11047628 0.8984375 7.96484375 C-0.33393562 5.26969733 -0.13287986 2.92335685 0 0 Z " fill="#CFCDCB" transform="translate(153,179)"/>
<path d="M0 0 C0.33 0 0.66 0 1 0 C1.37994634 4.05276093 0.35949605 7.06841747 -1.13671875 10.8125 C-2.04117147 13.10432589 -2.84475857 15.41311928 -3.625 17.75 C-3.86476563 18.46671875 -4.10453125 19.1834375 -4.3515625 19.921875 C-5.02998591 21.98025692 -5.02998591 21.98025692 -5.43359375 24.0625 C-6.42321669 27.44769294 -8.61652398 29.4421233 -11 32 C-11.66 32 -12.32 32 -13 32 C-11.71112032 26.72731042 -9.73410834 22.04672326 -7.44140625 17.1328125 C-5.79369308 13.55160393 -4.23319112 9.93861031 -2.6875 6.3125 C-2.17574219 5.11238281 -1.66398437 3.91226563 -1.13671875 2.67578125 C-0.76160156 1.79277344 -0.38648438 0.90976563 0 0 Z " fill="#EBEAE7" transform="translate(348,168)"/>
<path d="M0 0 C-3.02587911 2.08029189 -5.70068962 3.26454353 -9.25 4.0625 C-10.4875 4.371875 -11.725 4.68125 -13 5 C-13.33 5.66 -13.66 6.32 -14 7 C-14.9075 7.144375 -15.815 7.28875 -16.75 7.4375 C-20.18184141 8.03147255 -22.06056658 9.22086924 -25 11 C-26.32 11 -27.64 11 -29 11 C-29.33 11.99 -29.66 12.98 -30 14 C-31.32 13.67 -32.64 13.34 -34 13 C-27.40357121 8.12308972 -20.71701011 4.85230912 -13.0625 2 C-12.23387451 1.68538818 -11.40524902 1.37077637 -10.55151367 1.04663086 C-9.36779175 0.62136108 -9.36779175 0.62136108 -8.16015625 0.1875 C-7.10260132 -0.19341797 -7.10260132 -0.19341797 -6.02368164 -0.58203125 C-3.69118591 -1.06378209 -2.24041342 -0.73936472 0 0 Z " fill="#D0CFCD" transform="translate(309,301)"/>
<path d="M0 0 C3.48330216 0.64505596 6.09432866 1.98217268 9 4 C9 4.66 9 5.32 9 6 C9.66 6 10.32 6 11 6 C11 6.66 11 7.32 11 8 C11.99 8.33 12.98 8.66 14 9 C14 9.66 14 10.32 14 11 C16.97 11.495 16.97 11.495 20 12 C20 12.66 20 13.32 20 14 C20.721875 14.12375 21.44375 14.2475 22.1875 14.375 C24.95721894 14.9904931 27.3970354 15.88444374 30 17 C30 17.33 30 17.66 30 18 C24.21027778 18.47142776 20.78938692 17.2363528 16.125 14 C15.22080322 13.39575195 15.22080322 13.39575195 14.29833984 12.77929688 C9.17974184 9.28766717 4.30880768 5.46839315 0 1 C0 0.67 0 0.34 0 0 Z " fill="#D6D5D3" transform="translate(326,240)"/>
<path d="M0 0 C0.66 0 1.32 0 2 0 C1.54242593 5.79593819 -0.33949353 11.45002467 -4 16 C-7.06831404 17.10626289 -9.77562565 17.05995737 -13 17 C-14.49743119 18.49743119 -14.33202693 19.98824239 -14.5625 22.0625 C-14.706875 23.361875 -14.85125 24.66125 -15 26 C-17 24 -17 24 -17.1875 20.5 C-17 17 -17 17 -16 15 C-13.8203125 14.54296875 -13.8203125 14.54296875 -11.125 14.1875 C-7.07810258 13.51213322 -7.07810258 13.51213322 -4.0625 10.875 C-3.711875 9.92625 -3.36125 8.9775 -3 8 C-2.72671875 7.30519531 -2.4534375 6.61039063 -2.171875 5.89453125 C-1.41208876 3.94326205 -0.70216109 1.97273831 0 0 Z " fill="#CDCCCC" transform="translate(334,201)"/>
<path d="M0 0 C0 1.65 0 3.3 0 5 C-0.33 4.34 -0.66 3.68 -1 3 C-1.66 3 -2.32 3 -3 3 C-3.226875 3.928125 -3.45375 4.85625 -3.6875 5.8125 C-5.20005515 11.12253405 -7.66918428 16.01135859 -10 21 C-10.77513969 22.72724053 -11.54638278 24.45623867 -12.3125 26.1875 C-12.63863281 26.92355469 -12.96476562 27.65960938 -13.30078125 28.41796875 C-13.53152344 28.94003906 -13.76226562 29.46210938 -14 30 C-14.33 30 -14.66 30 -15 30 C-15.33822726 25.15207594 -14.48181312 23.06970303 -12 19 C-11.10452916 16.82908109 -10.25170299 14.64018709 -9.4375 12.4375 C-5.72786441 2.44112994 -5.72786441 2.44112994 -2.9375 0.75 C-1 0 -1 0 0 0 Z " fill="#CECCCA" transform="translate(388,124)"/>
<path d="M0 0 C0.66 0.66 1.32 1.32 2 2 C-0.97 1.67 -3.94 1.34 -7 1 C-7 1.66 -7 2.32 -7 3 C-9.65228812 4.07525194 -12.28368454 5.09456151 -15 6 C-15.33 7.65 -15.66 9.3 -16 11 C-16.66 11 -17.32 11 -18 11 C-18 17.27 -18 23.54 -18 30 C-18.33 30 -18.66 30 -19 30 C-19.11689626 26.62529496 -19.18747934 23.2511157 -19.25 19.875 C-19.28351563 18.92367187 -19.31703125 17.97234375 -19.3515625 16.9921875 C-19.43521719 10.96905017 -19.03617078 7.57090847 -15 3 C-10.35015377 -0.24407876 -5.53961189 -0.85310023 0 0 Z " fill="#C4C3C1" transform="translate(254,48)"/>
<path d="M0 0 C4.44252087 -0.17086619 7.09445656 0.03635942 11 2 C22.06376906 4.64907147 33.68800319 4.6053395 45 5 C45 5.33 45 5.66 45 6 C13.67959553 7.03194763 13.67959553 7.03194763 0 1 C0 0.67 0 0.34 0 0 Z " fill="#D3D2D0" transform="translate(352,258)"/>
<path d="M0 0 C0.33 0 0.66 0 1 0 C1.65896358 9.06074918 -0.77619855 17.29975762 -3 26 C-3.58363874 28.35409097 -4.16701553 30.70824692 -4.75 33.0625 C-5.16540487 34.70865226 -5.58152336 36.35462595 -6 38 C-6.33 38 -6.66 38 -7 38 C-7.45185617 30.24580624 -6.17708671 23.624845 -4.0625 16.1875 C-3.51069125 14.18127191 -2.95987428 12.17477071 -2.41015625 10.16796875 C-2.16402588 9.29422607 -1.91789551 8.4204834 -1.66430664 7.52026367 C-1.00704637 5.02673269 -0.47925274 2.53319303 0 0 Z " fill="#D9D7D6" transform="translate(113,322)"/>
<path d="M0 0 C1.96396302 2.94594453 2.62702265 4.87656987 3.47265625 8.26171875 C3.73240234 9.29876953 3.99214844 10.33582031 4.25976562 11.40429688 C4.52466797 12.48775391 4.78957031 13.57121094 5.0625 14.6875 C5.33126953 15.75162109 5.60003906 16.81574219 5.87695312 17.91210938 C7.28747236 23.60694887 8.42798695 29.15981741 9 35 C8.34 35 7.68 35 7 35 C6.81824219 34.0821875 6.63648438 33.164375 6.44921875 32.21875 C4.95082643 24.41831346 4.95082643 24.41831346 2.375 16.9375 C0.14242148 11.59567601 0.2525098 5.71194582 0 0 Z " fill="#D7D5D3" transform="translate(388,338)"/>
<path d="M0 0 C-1.32 0.33 -2.64 0.66 -4 1 C-4 1.66 -4 2.32 -4 3 C-10.83982904 5.27994301 -17.87045933 6.07048984 -25 7 C-25 6.34 -25 5.68 -25 5 C-22.0835095 4.18686324 -19.16681631 3.3744665 -16.25 2.5625 C-15.425 2.33240234 -14.6 2.10230469 -13.75 1.86523438 C-12.95078125 1.64287109 -12.1515625 1.42050781 -11.328125 1.19140625 C-10.5949707 0.98717041 -9.86181641 0.78293457 -9.10644531 0.57250977 C-8.41131836 0.38358154 -7.71619141 0.19465332 -7 0 C-6.31260742 -0.21019775 -5.62521484 -0.42039551 -4.91699219 -0.63696289 C-3 -1 -3 -1 0 0 Z " fill="#D1D0CE" transform="translate(171,85)"/>
<path d="M0 0 C9.16595227 0.24236893 17.39678442 3.10735556 26 6 C26 6.66 26 7.32 26 8 C20.06 7.01 20.06 7.01 14 6 C14 5.34 14 4.68 14 4 C13.40832031 4.02320313 12.81664062 4.04640625 12.20703125 4.0703125 C7.66198041 4.17411464 4.14059941 4.13708357 0 2 C0 1.34 0 0.68 0 0 Z " fill="#D2D1CF" transform="translate(175,297)"/>
<path d="M0 0 C7.155998 -0.2773792 13.64240894 0.46900226 20.625 2 C21.53378906 2.19078125 22.44257813 2.3815625 23.37890625 2.578125 C25.58799498 3.04319631 27.7947276 3.51721547 30 4 C30 4.33 30 4.66 30 5 C19.79518508 5.41464259 9.72483802 4.16622633 0 1 C0 0.67 0 0.34 0 0 Z " fill="#D1D0CF" transform="translate(161,404)"/>
<path d="M0 0 C0.33 0 0.66 0 1 0 C1.53251766 1.91345327 2.05059483 3.8309295 2.5625 5.75 C2.85253906 6.81734375 3.14257812 7.8846875 3.44140625 8.984375 C3.97098494 11.84335927 3.98370862 13.31597383 3 16 C-1.97093824 15.58846263 -6.44508386 15.20399168 -11 13 C-11 12.67 -11 12.34 -11 12 C-7.04 12.33 -3.08 12.66 1 13 C0.67 11.68 0.34 10.36 0 9 C-0.06548492 7.41788427 -0.08578381 5.83329919 -0.0625 4.25 C-0.05347656 3.45078125 -0.04445313 2.6515625 -0.03515625 1.828125 C-0.02355469 1.22484375 -0.01195312 0.6215625 0 0 Z " fill="#D3D2CF" transform="translate(397,374)"/>
<path d="M0 0 C0 0.33 0 0.66 0 1 C-1.02996094 1.03738281 -2.05992187 1.07476562 -3.12109375 1.11328125 C-11.68696743 1.48760709 -19.96020452 2.3169602 -28.37670898 3.98364258 C-31.97570309 4.69000353 -35.32928685 5.16361706 -39 5 C-38.67 4.34 -38.34 3.68 -38 3 C-25.74199192 -1.06116377 -12.72869636 -0.3234844 0 0 Z " fill="#C8C7C4" transform="translate(214,100)"/>
<path d="M0 0 C0.99 0.33 1.98 0.66 3 1 C-3.27631547 6.97744331 -10.44751218 10.87284299 -18 15 C-18.99 14.34 -19.98 13.68 -21 13 C-17.33708062 10.52214277 -14.3890815 9.51035831 -10 9 C-10 8.34 -10 7.68 -10 7 C-8.35 6.67 -6.7 6.34 -5 6 C-5 5.34 -5 4.68 -5 4 C-4.01 4 -3.02 4 -2 4 C-1.34 2.68 -0.68 1.36 0 0 Z " fill="#CFCDCB" transform="translate(163,245)"/>
<path d="M0 0 C0.99386719 0.00902344 1.98773438 0.01804687 3.01171875 0.02734375 C4.15060547 0.04474609 4.15060547 0.04474609 5.3125 0.0625 C5.3125 0.3925 5.3125 0.7225 5.3125 1.0625 C4.47440796 1.21283691 4.47440796 1.21283691 3.61938477 1.36621094 C1.03563999 1.83661302 -1.54453274 2.32445115 -4.125 2.8125 C-5.00349609 2.96976562 -5.88199219 3.12703125 -6.78710938 3.2890625 C-12.22487076 4.33247059 -16.86507843 5.82864908 -21.79711914 8.36425781 C-23.6875 9.0625 -23.6875 9.0625 -26.6875 8.0625 C-26.0275 8.0625 -25.3675 8.0625 -24.6875 8.0625 C-24.6875 7.4025 -24.6875 6.7425 -24.6875 6.0625 C-23.6975 6.0625 -22.7075 6.0625 -21.6875 6.0625 C-21.6875 5.4025 -21.6875 4.7425 -21.6875 4.0625 C-20.78386719 3.85753906 -19.88023437 3.65257812 -18.94921875 3.44140625 C-17.76972656 3.17199219 -16.59023438 2.90257812 -15.375 2.625 C-14.20324219 2.35816406 -13.03148437 2.09132813 -11.82421875 1.81640625 C-4.06773013 -0.04785565 -4.06773013 -0.04785565 0 0 Z " fill="#D0CCCA" transform="translate(320.6875,385.9375)"/>
<path d="M0 0 C0.66 0 1.32 0 2 0 C2.226875 0.61875 2.45375 1.2375 2.6875 1.875 C4.43087485 4.69760689 5.87300015 4.98108994 9 6 C10.92903132 6.2759478 12.8689032 6.48449903 14.8125 6.625 C15.78832031 6.69976562 16.76414063 6.77453125 17.76953125 6.8515625 C18.50558594 6.90054687 19.24164063 6.94953125 20 7 C19.67 7.66 19.34 8.32 19 9 C14.67794317 10.23354841 10.35635113 10.4753187 6.125 8.875 C2.79549214 6.87729528 1.53652115 5.52496028 0 2 C0 1.34 0 0.68 0 0 Z " fill="#D3D2D0" transform="translate(236,307)"/>
<path d="M0 0 C3.04786402 1.52393201 3.23062007 3.85113292 4.375 7 C6.18063498 11.8848875 8.12219524 16.61016501 10.3984375 21.29296875 C10.59695313 21.85628906 10.79546875 22.41960937 11 23 C10.67 23.66 10.34 24.32 10 25 C7.60627729 21.10375596 5.40742587 17.12551906 3.3125 13.0625 C2.83200195 12.17014648 2.83200195 12.17014648 2.34179688 11.25976562 C0.32932483 7.3335142 -0.35565672 4.39538019 0 0 Z " fill="#D1D1CF" transform="translate(403,122)"/>
<path d="M0 0 C0.66 0.33 1.32 0.66 2 1 C-1.34847413 5.60415193 -5.3571375 9.6918413 -10 13 C-10.99 13 -11.98 13 -13 13 C-13.66 14.32 -14.32 15.64 -15 17 C-15 12.70588533 -12.88527932 11.16691945 -10.08984375 8.07421875 C-6.99295666 5.00048596 -3.59247731 2.46341302 0 0 Z " fill="#CECDCB" transform="translate(273,315)"/>
<path d="M0 0 C5.67690937 -0.14670665 10.81680383 0.31647544 16.375 1.4375 C17.08527344 1.57220703 17.79554688 1.70691406 18.52734375 1.84570312 C23.70579387 2.85289693 23.70579387 2.85289693 26 4 C26 4.66 26 5.32 26 6 C25.2265625 5.86722656 24.453125 5.73445313 23.65625 5.59765625 C16.66110466 4.40496117 16.66110466 4.40496117 9.625 3.5 C6.19303703 3.0266258 3.23596255 2.21348595 0 1 C0 0.67 0 0.34 0 0 Z " fill="#D0CFCD" transform="translate(297,79)"/>
<path d="M0 0 C-3.74179277 2.16732412 -7.77252789 3.06396977 -11.9375 4.0625 C-12.64068359 4.23587891 -13.34386719 4.40925781 -14.06835938 4.58789062 C-17.69764126 5.47565311 -21.32917442 6.30318967 -25 7 C-19.94832065 -0.57751902 -8.31247383 -0.58907295 0 0 Z " fill="#D3D2D0" transform="translate(324,426)"/>
<path d="M0 0 C18.77505638 -0.74767924 18.77505638 -0.74767924 23.84765625 3.57421875 C24.22792969 4.04472656 24.60820312 4.51523438 25 5 C16.45907394 4.49451662 8.32622708 2.93265709 0 1 C0 0.67 0 0.34 0 0 Z " fill="#D6D5D4" transform="translate(330,107)"/>
<path d="M0 0 C-3.60249951 2.9281855 -7.5407989 5.02412528 -11.625 7.1875 C-12.305625 7.55552734 -12.98625 7.92355469 -13.6875 8.30273438 C-18.75175383 11 -18.75175383 11 -21 11 C-19.62850499 6.88551498 -17.74809303 6.0822739 -14 4 C-10.125 3.25 -10.125 3.25 -7 3 C-7 2.34 -7 1.68 -7 1 C-4.53721199 -0.231394 -2.7204945 -0.07159196 0 0 Z " fill="#DDDDDB" transform="translate(299,433)"/>
<path d="M0 0 C-3.4019674 2.71649635 -7.08344353 4.82437139 -10.875 6.9375 C-15.38583379 9.45483628 -19.73379811 12.08410972 -24 15 C-24 13.68 -24 12.36 -24 11 C-22.37750059 10.16180842 -20.75191503 9.3295884 -19.125 8.5 C-18.22007812 8.0359375 -17.31515625 7.571875 -16.3828125 7.09375 C-14 6 -14 6 -12 6 C-12 5.34 -12 4.68 -12 4 C-4.71428571 -0.57142857 -4.71428571 -0.57142857 0 0 Z " fill="#CECDCB" transform="translate(294,395)"/>
<path d="M0 0 C0.99 0 1.98 0 3 0 C1.39306847 5.08050068 -0.57646264 9.96184129 -2.625 14.875 C-2.94984375 15.65875 -3.2746875 16.4425 -3.609375 17.25 C-4.40440762 19.16743162 -5.20194851 21.0838229 -6 23 C-6.33 23 -6.66 23 -7 23 C-6.48334032 17.14016367 -5.24718923 12.39106117 -2.9375 7 C-2.65583984 6.32066406 -2.37417969 5.64132813 -2.08398438 4.94140625 C-1.39808689 3.29060213 -0.70030171 1.64474531 0 0 Z " fill="#D4D2D1" transform="translate(85,180)"/>
<path d="M0 0 C0.33 0 0.66 0 1 0 C0.55643705 6.20988129 -0.91532502 10.60540561 -4 16 C-4.66 16 -5.32 16 -6 16 C-6.103125 17.11375 -6.20625 18.2275 -6.3125 19.375 C-6.6528125 21.169375 -6.6528125 21.169375 -7 23 C-7.99 23.66 -8.98 24.32 -10 25 C-7.80829335 16.1288064 -3.97839741 8.17478919 0 0 Z " fill="#C8C8C6" transform="translate(359,143)"/>
<path d="M0 0 C7.55320846 0.75532085 14.00698609 4.50523956 20 9 C20 9.66 20 10.32 20 11 C15.50675151 9.34229667 11.38813854 7.15017838 7.1875 4.875 C6.49462891 4.50246094 5.80175781 4.12992187 5.08789062 3.74609375 C3.39065164 2.83309623 1.69514862 1.91687284 0 1 C0 0.67 0 0.34 0 0 Z " fill="#D2D2CF" transform="translate(203,435)"/>
<path d="M0 0 C0.89847656 0.15339844 1.79695312 0.30679687 2.72265625 0.46484375 C8.26420344 1.25649335 13.84974739 1.36021341 19.4375 1.5625 C20.55060547 1.60568359 21.66371094 1.64886719 22.81054688 1.69335938 C25.54025844 1.79879888 28.27005143 1.90092029 31 2 C31 2.33 31 2.66 31 3 C30.06148193 3.03758423 30.06148193 3.03758423 29.10400391 3.07592773 C26.27745381 3.19175273 23.45124831 3.31453985 20.625 3.4375 C19.14773437 3.49647461 19.14773437 3.49647461 17.640625 3.55664062 C16.22910156 3.61948242 16.22910156 3.61948242 14.7890625 3.68359375 C13.91975098 3.72025146 13.05043945 3.75690918 12.15478516 3.79467773 C9.9516738 3.87401544 9.9516738 3.87401544 8 5 C6.0546875 4.22265625 6.0546875 4.22265625 3.875 3.0625 C3.15054688 2.68222656 2.42609375 2.30195313 1.6796875 1.91015625 C1.12539062 1.60980469 0.57109375 1.30945313 0 1 C0 0.67 0 0.34 0 0 Z " fill="#E5E3E1" transform="translate(231,453)"/>
<path d="M0 0 C0.99 0.33 1.98 0.66 3 1 C3.87890625 2.78515625 3.87890625 2.78515625 4.5625 5.0625 C4.80742187 5.87203125 5.05234375 6.6815625 5.3046875 7.515625 C5.53414063 8.33546875 5.76359375 9.1553125 6 10 C6.31324219 11.10601562 6.31324219 11.10601562 6.6328125 12.234375 C7.53929166 15.63048002 8 18.46165521 8 22 C7.34 22 6.68 22 6 22 C5.73445313 20.74703125 5.46890625 19.4940625 5.1953125 18.203125 C4.83882441 16.55202226 4.48203794 14.90098393 4.125 13.25 C3.95097656 12.425 3.77695312 11.6 3.59765625 10.75 C3.33662109 9.55117188 3.33662109 9.55117188 3.0703125 8.328125 C2.91320801 7.5949707 2.75610352 6.86181641 2.59423828 6.10644531 C1.97058111 3.89571644 1.08856601 2.01763516 0 0 Z " fill="#CFCECC" transform="translate(376,297)"/>
<path d="M0 0 C0.66 0 1.32 0 2 0 C1.03020361 3.13318834 -0.00607128 6.01188959 -1.5 8.9375 C-3.14475541 12.040191 -3.14475541 12.040191 -4 15.8125 C-4.33 16.864375 -4.66 17.91625 -5 19 C-5.99 19.33 -6.98 19.66 -8 20 C-6.12849037 12.84870304 -3.50213658 6.50594543 0 0 Z " fill="#CFCECC" transform="translate(66,186)"/>
<path d="M0 0 C5.28 0 10.56 0 16 0 C16.33 0.66 16.66 1.32 17 2 C16.0625 4.625 16.0625 4.625 15 7 C14.34 7 13.68 7 13 7 C12.67 7.99 12.34 8.98 12 10 C11.67 9.34 11.34 8.68 11 8 C11.66 6.35 12.32 4.7 13 3 C8.71 2.34 4.42 1.68 0 1 C0 0.67 0 0.34 0 0 Z " fill="#C9C9C7" transform="translate(358,112)"/>
<path d="M0 0 C-5.954292 3.969528 -14.83621542 4.52222389 -21.875 3.625 C-22.90625 3.41875 -23.9375 3.2125 -25 3 C-25 2.67 -25 2.34 -25 2 C-16.58173087 0.30117812 -8.58077055 -0.24911914 0 0 Z " fill="#D8D8D5" transform="translate(151,110)"/>
<path d="M0 0 C5.44283679 5.44283679 6.83545673 13.6603128 8 21 C4.7530014 19.3765007 4.18150315 15.9231189 2.9375 12.6875 C2.66873047 12.01009766 2.39996094 11.33269531 2.12304688 10.63476562 C-0.54683386 3.82357361 -0.54683386 3.82357361 -1 1 C-0.67 0.67 -0.34 0.34 0 0 Z " fill="#CFCFCE" transform="translate(402,158)"/>
<path d="M0 0 C2.53206678 1.26603339 2.67486071 2.16418084 3.7265625 4.74609375 C4.0359375 5.50083984 4.3453125 6.25558594 4.6640625 7.03320312 C4.98117188 7.82662109 5.29828125 8.62003906 5.625 9.4375 C5.94984375 10.22705078 6.2746875 11.01660156 6.609375 11.83007812 C9 17.72126116 9 17.72126116 9 20 C6 19 6 19 4.6484375 16.5234375 C2.41193165 10.99391689 0.40750241 5.97670199 0 0 Z " fill="#C8C7C6" transform="translate(144,159)"/>
<path d="M0 0 C0.66 0 1.32 0 2 0 C9.57692308 16.26923077 9.57692308 16.26923077 8 21 C7.040062 18.93824636 6.08211576 16.87556531 5.125 14.8125 C4.59132813 13.66394531 4.05765625 12.51539063 3.5078125 11.33203125 C0 3.58031088 0 3.58031088 0 0 Z " fill="#CDCCCB" transform="translate(123,151)"/>
<path d="M0 0 C2.8301913 3.38263104 4.5032781 7.09118459 6.1875 11.125 C6.46013672 11.75792969 6.73277344 12.39085937 7.01367188 13.04296875 C9 17.7324953 9 17.7324953 9 20 C8.01 20 7.02 20 6 20 C5.73445312 19.18015625 5.46890625 18.3603125 5.1953125 17.515625 C4.84210938 16.43796875 4.48890625 15.3603125 4.125 14.25 C3.77695313 13.18265625 3.42890625 12.1153125 3.0703125 11.015625 C2.11444367 8.09098635 2.11444367 8.09098635 0.8671875 5.859375 C0 4 0 4 0 0 Z " fill="#D2D0CD" transform="translate(135,138)"/>
<path d="M0 0 C6.82713109 0.15978392 11.80831823 1.50172878 17.7734375 4.84375 C19.86838513 5.93165263 21.69614806 6.53712564 24 7 C24 7.66 24 8.32 24 9 C14.46013421 6.29351896 14.46013421 6.29351896 10.3125 4.4375 C6.88847653 2.95160302 3.60041952 1.95521334 0 1 C0 0.67 0 0.34 0 0 Z " fill="#CBC7C6" transform="translate(182,388)"/>
<path d="M0 0 C4.75 0.875 4.75 0.875 7 2 C7.33 2.99 7.66 3.98 8 5 C8.99 5.66 9.98 6.32 11 7 C11 7.99 11 8.98 11 10 C9.68 9.67 8.36 9.34 7 9 C7 8.34 7 7.68 7 7 C6.34 7 5.68 7 5 7 C3.7109375 5.46875 3.7109375 5.46875 2.375 3.5 C1.70597656 2.52546875 1.70597656 2.52546875 1.0234375 1.53125 C0.68570313 1.0259375 0.34796875 0.520625 0 0 Z " fill="#D4D3D1" transform="translate(232,413)"/>
<path d="M0 0 C0 0.33 0 0.66 0 1 C-4.62 1.33 -9.24 1.66 -14 2 C-14.33 2.99 -14.66 3.98 -15 5 C-18.3 5 -21.6 5 -25 5 C-24.67 4.01 -24.34 3.02 -24 2 C-24 2.66 -24 3.32 -24 4 C-23.41992188 3.79503906 -22.83984375 3.59007812 -22.2421875 3.37890625 C-14.66030081 0.76403114 -7.99948204 -0.15998964 0 0 Z " fill="#E7E5E3" transform="translate(124,384)"/>
<path d="M0 0 C3 1 3 1 4.6875 4.25 C5.83944321 7.54126631 6.31025348 9.5872117 6 13 C6.66 13 7.32 13 8 13 C8.33 15.31 8.66 17.62 9 20 C7.05304181 18.05304181 6.35223828 16.84364041 5.2734375 14.375 C4.809375 13.31539062 4.809375 13.31539062 4.3359375 12.234375 C3.86027344 11.12835938 3.86027344 11.12835938 3.375 10 C3.05015625 9.26265625 2.7253125 8.5253125 2.390625 7.765625 C0 2.26116071 0 2.26116071 0 0 Z " fill="#C9C8C5" transform="translate(114,131)"/>
<path d="M0 0 C-3.02587911 2.08029189 -5.70068962 3.26454353 -9.25 4.0625 C-10.4875 4.371875 -11.725 4.68125 -13 5 C-13.33 5.66 -13.66 6.32 -14 7 C-14.66 6.34 -15.32 5.68 -16 5 C-15.34 5 -14.68 5 -14 5 C-13.67 4.01 -13.34 3.02 -13 2 C-11.07421875 1.015625 -11.07421875 1.015625 -8.6875 0.25 C-7.51767578 -0.14445312 -7.51767578 -0.14445312 -6.32421875 -0.546875 C-3.83078909 -1.03298902 -2.3818103 -0.80665429 0 0 Z " fill="#DBDAD8" transform="translate(309,301)"/>
<path d="M0 0 C0.33 0 0.66 0 1 0 C1.36455002 6.31886706 1.36455002 6.31886706 -0.1875 9.21875 C-2 11 -2 11 -4.48046875 11.390625 C-5.82044922 11.32101563 -5.82044922 11.32101563 -7.1875 11.25 C-8.08855469 11.21390625 -8.98960938 11.1778125 -9.91796875 11.140625 C-10.60503906 11.09421875 -11.29210938 11.0478125 -12 11 C-8.5647952 8.70986347 -7.014669 8.82157027 -3 9 C-2.87625 8.443125 -2.7525 7.88625 -2.625 7.3125 C-1.94023145 4.77885636 -1.00866237 2.42078968 0 0 Z " fill="#D9D8D4" transform="translate(57,207)"/>
<path d="M0 0 C4.26010999 3.49937606 6.29475717 7.8576271 8 13 C8.25 16.5625 8.25 16.5625 8 19 C5.85727214 15.7859082 4.37881715 12.47398867 2.875 8.9375 C2.59785156 8.30005859 2.32070313 7.66261719 2.03515625 7.00585938 C0 2.24880696 0 2.24880696 0 0 Z " fill="#CBCBC8" transform="translate(416,194)"/>
<path d="M0 0 C4.95 1.98 4.95 1.98 10 4 C9.67 5.65 9.34 7.3 9 9 C8.01 9.66 7.02 10.32 6 11 C6.33 9.35 6.66 7.7 7 6 C6.401875 5.896875 5.80375 5.79375 5.1875 5.6875 C2.68741714 4.90175967 1.62464918 4.03081147 0 2 C0 1.34 0 0.68 0 0 Z " fill="#DEDCDA" transform="translate(90,107)"/>
<path d="M0 0 C1.203657 3.56798325 0.85284058 6.3769519 0.25 10.0625 C0.01023437 11.62677734 0.01023437 11.62677734 -0.234375 13.22265625 C-1.02320028 16.0841602 -1.71216447 17.18355916 -4 19 C-3.46048934 12.31006781 -2.11293829 6.36539272 0 0 Z " fill="#CDCCCB" transform="translate(118,303)"/>
<path d="M0 0 C0.87454834 0.04713135 1.74909668 0.0942627 2.65014648 0.14282227 C4.06650391 0.21533203 4.06650391 0.21533203 5.51147461 0.28930664 C6.50469727 0.34538086 7.49791992 0.40145508 8.52124023 0.45922852 C9.51833008 0.51143555 10.51541992 0.56364258 11.54272461 0.61743164 C14.01501545 0.74755221 16.48694653 0.88253033 18.95874023 1.02172852 C18.95874023 1.35172852 18.95874023 1.68172852 18.95874023 2.02172852 C17.17016602 2.11260742 17.17016602 2.11260742 15.34545898 2.20532227 C13.77904099 2.28974 12.21263536 2.37438739 10.64624023 2.45922852 C9.86055664 2.49854492 9.07487305 2.53786133 8.26538086 2.57836914 C7.50805664 2.62026367 6.75073242 2.6621582 5.97045898 2.70532227 C5.2739624 2.74197998 4.57746582 2.7786377 3.85986328 2.81640625 C1.73708304 2.97754004 1.73708304 2.97754004 -1.04125977 4.02172852 C-1.37125977 6.00172852 -1.70125977 7.98172852 -2.04125977 10.02172852 C-2.37125977 10.02172852 -2.70125977 10.02172852 -3.04125977 10.02172852 C-3.06815193 8.5426596 -3.08760598 7.06345369 -3.10375977 5.58422852 C-3.11536133 4.76051758 -3.12696289 3.93680664 -3.13891602 3.08813477 C-3.00721469 0.30133473 -2.79783786 0.02978203 0 0 Z " fill="#D0CFCB" transform="translate(264.041259765625,97.978271484375)"/>
<path d="M0 0 C1.875 0.625 1.875 0.625 4 2 C6.03569718 6.37674895 6.19117978 10.22050561 6 15 C4.19969878 12.29954818 3.06622934 9.93322119 1.875 6.9375 C1.52179688 6.05964844 1.16859375 5.18179688 0.8046875 4.27734375 C0 2 0 2 0 0 Z " fill="#D3D2D1" transform="translate(142,196)"/>
<path d="M0 0 C0 0.33 0 0.66 0 1 C-7.17859349 3.04061541 -13.52605426 4.37369729 -21 4 C-14.65939616 -0.22706923 -7.41567962 -0.2354184 0 0 Z " fill="#C8C7C5" transform="translate(194,80)"/>
<path d="M0 0 C0.33 0.66 0.66 1.32 1 2 C-0.3125 4.625 -0.3125 4.625 -2 7 C-2.66 7 -3.32 7 -4 7 C-4.2475 7.598125 -4.495 8.19625 -4.75 8.8125 C-6.16370012 11.28647521 -7.65055383 12.43370255 -10 14 C-9.65930765 10.84859577 -9.41923159 9.39218439 -7.0625 7.1875 C-5 6 -5 6 -3 6 C-3 4.68 -3 3.36 -3 2 C-2.01 1.34 -1.02 0.68 0 0 Z " fill="#D8D6D3" transform="translate(450,232)"/>
<path d="M0 0 C-3.53727639 2.03016615 -7.09214423 2.83163992 -11.0625 3.6875 C-12.29097656 3.95949219 -13.51945313 4.23148437 -14.78515625 4.51171875 C-18 5 -18 5 -21 4 C-14.13581695 0.6409317 -7.62660482 -0.24601951 0 0 Z " fill="#CAC9C7" transform="translate(175,105)"/>
<path d="M0 0 C0.33 0 0.66 0 1 0 C1.33 5.28 1.66 10.56 2 16 C1.34 16 0.68 16 0 16 C-1.08489672 12.74530985 -1.13323992 10.29456791 -1.125 6.875 C-1.12757812 5.79992187 -1.13015625 4.72484375 -1.1328125 3.6171875 C-1 1 -1 1 0 0 Z " fill="#CFCECE" transform="translate(92,407)"/>
<path d="M0 0 C5.93002267 -0.37851209 10.47239641 0.89424625 16 3 C16 3.66 16 4.32 16 5 C10.13190493 4.47606294 5.45126259 3.23891142 0 1 C0 0.67 0 0.34 0 0 Z " fill="#C1C1BE" transform="translate(352,258)"/>
<path d="M0 0 C0.33 0 0.66 0 1 0 C1.27771418 4.67948398 0.54837397 7.67583336 -1.5 11.875 C-1.9640625 12.84179688 -2.428125 13.80859375 -2.90625 14.8046875 C-3.2671875 15.52914062 -3.628125 16.25359375 -4 17 C-5.4038527 13.25046938 -4.55240617 11.02719095 -3.125 7.375 C-2.75632812 6.41335937 -2.38765625 5.45171875 -2.0078125 4.4609375 C-1 2 -1 2 0 0 Z " fill="#D8D7D5" transform="translate(100,145)"/>
<path d="M0 0 C5.80342274 1.48805711 10.17590879 4.59097555 15 8 C14.67 8.66 14.34 9.32 14 10 C13.34 10 12.68 10 12 10 C11.34 9.01 10.68 8.02 10 7 C7.44816596 5.79549696 7.44816596 5.79549696 5 5 C5 4.34 5 3.68 5 3 C3.35 2.67 1.7 2.34 0 2 C0 1.34 0 0.68 0 0 Z " fill="#D0CFCD" transform="translate(217,419)"/>
<path d="M0 0 C1.91808109 0.45237761 3.83442033 0.91214463 5.75 1.375 C6.81734375 1.63023437 7.8846875 1.88546875 8.984375 2.1484375 C11.55852722 2.87533541 13.67600186 3.7026224 16 5 C15.67 5.66 15.34 6.32 15 7 C12.87434778 6.35631658 10.74949654 5.70998756 8.625 5.0625 C7.44164062 4.70285156 6.25828125 4.34320313 5.0390625 3.97265625 C2 3 2 3 0 2 C0 1.34 0 0.68 0 0 Z " fill="#D4D3D0" transform="translate(192,409)"/>
<path d="M0 0 C3.49403583 0.72376457 6.51998905 2.06285206 9.75 3.5625 C11.22726563 4.24505859 11.22726563 4.24505859 12.734375 4.94140625 C13.48203125 5.29074219 14.2296875 5.64007813 15 6 C10.74938644 7.41687119 8.28148375 6.19320039 4 5 C4 4.34 4 3.68 4 3 C2.68 2.34 1.36 1.68 0 1 C0 0.67 0 0.34 0 0 Z " fill="#CCCCC9" transform="translate(202,304)"/>
<path d="M0 0 C2.475 0.495 2.475 0.495 5 1 C5.33 1.99 5.66 2.98 6 4 C6.99 4.33 7.98 4.66 9 5 C10.1875 7.0625 10.1875 7.0625 11 9 C5.70841026 7.59928507 3.22521956 4.14512755 0 0 Z " fill="#C9C9C7" transform="translate(52,241)"/>
<path d="M0 0 C0.66 0 1.32 0 2 0 C0.68139111 4.61513112 -1.21355437 8.09897612 -4 12 C-4.6875 10.3125 -4.6875 10.3125 -5 8 C-3.6875 5.4375 -3.6875 5.4375 -2 3 C-1.34 2.01 -0.68 1.02 0 0 Z " fill="#D7D4D4" transform="translate(177,227)"/>
<path d="M0 0 C0.66 0 1.32 0 2 0 C1.34496718 4.05819183 0.05440879 7.53971282 -1.5625 11.3125 C-2.01753906 12.38113281 -2.47257812 13.44976562 -2.94140625 14.55078125 C-3.46541016 15.76314453 -3.46541016 15.76314453 -4 17 C-4.33 17 -4.66 17 -5 17 C-4.25 10.375 -4.25 10.375 -2 7 C-1.29187186 4.67891331 -0.61975848 2.34622853 0 0 Z " fill="#D0CFCE" transform="translate(360,180)"/>
<path d="M0 0 C1.06340773 3.19736014 0.96582104 4.8981025 -0.3125 8 C-0.59351562 8.6909375 -0.87453125 9.381875 -1.1640625 10.09375 C-2.04398261 12.1002968 -2.95616506 14.07292011 -4 16 C-4.66 16 -5.32 16 -6 16 C-4.25192871 10.53262809 -2.34205919 5.24175152 0 0 Z " fill="#CBC9C7" transform="translate(88,134)"/>
<path d="M0 0 C6.19518473 0.41588046 11.26689311 1.60251894 17 4 C17 4.66 17 5.32 17 6 C13.08878502 5.31063929 9.44491404 4.21749819 5.6875 2.9375 C4.61886719 2.57527344 3.55023438 2.21304687 2.44921875 1.83984375 C1.64097656 1.56269531 0.83273438 1.28554688 0 1 C0 0.67 0 0.34 0 0 Z " fill="#CBC9C7" transform="translate(186,429)"/>
<path d="M0 0 C0 0.66 0 1.32 0 2 C1.32 2.33 2.64 2.66 4 3 C-8.66970387 2.03644647 -8.66970387 2.03644647 -14 1 C-14 0.67 -14 0.34 -14 0 C-8.97874074 -0.77916092 -5.02296004 -1.13016601 0 0 Z " fill="#E2E1DE" transform="translate(364,92)"/>
<path d="M0 0 C0.66 0.33 1.32 0.66 2 1 C1.67 1.66 1.34 2.32 1 3 C0.01 3.33 -0.98 3.66 -2 4 C-2.33 4.66 -2.66 5.32 -3 6 C-5.32156597 6.40729228 -7.6568787 6.74438677 -10 7 C-7.01767477 3.67356033 -4.13629913 1.70847138 0 0 Z " fill="#D0CFCD" transform="translate(282,418)"/>
<path d="M0 0 C2.15377564 2.62198774 3.40072174 4.64404172 4 8 C6.31 8.33 8.62 8.66 11 9 C11 9.33 11 9.66 11 10 C8.03 10 5.06 10 2 10 C0.0044484 6.00889681 -0.19546065 4.30013434 0 0 Z " fill="#E3E2DF" transform="translate(440,208)"/>
<path d="M0 0 C1.11346788 2.80033839 1.03510273 3.90143703 0.00390625 6.796875 C-0.47175781 7.77140625 -0.94742187 8.7459375 -1.4375 9.75 C-1.91058594 10.73484375 -2.38367188 11.7196875 -2.87109375 12.734375 C-3.24363281 13.48203125 -3.61617188 14.2296875 -4 15 C-4.66 15 -5.32 15 -6 15 C-4.64475824 9.57903298 -2.63365987 4.9221313 0 0 Z " fill="#C7C5C5" transform="translate(341,185)"/>
<path d="M0 0 C4.1724106 0.51881113 6.25416821 1.71151274 9.3125 4.5625 C10.00988281 5.20316406 10.70726562 5.84382813 11.42578125 6.50390625 C11.94527344 6.99761719 12.46476563 7.49132812 13 8 C9.18008284 8 7.88692091 6.76738773 4.8125 4.5625 C3.91144531 3.92441406 3.01039063 3.28632813 2.08203125 2.62890625 C1.39496094 2.09136719 0.70789063 1.55382812 0 1 C0 0.67 0 0.34 0 0 Z " fill="#C6C5C3" transform="translate(218,403)"/>
<path d="M0 0 C0 0.66 0 1.32 0 2 C-4.1205746 3.99785435 -7.45194365 4.17835515 -12 4 C-8.21692645 0.21692645 -5.303392 -0.24106327 0 0 Z " fill="#D9D9D5" transform="translate(296,414)"/>
<path d="M0 0 C0.33 0 0.66 0 1 0 C1.53093324 1.93475671 2.04942317 3.87293155 2.5625 5.8125 C2.85253906 6.89144531 3.14257812 7.97039062 3.44140625 9.08203125 C4 12 4 12 3 15 C0.33684806 12.33684806 0.05573507 10.34655932 -0.09765625 6.640625 C-0.08605469 5.85171875 -0.07445312 5.0628125 -0.0625 4.25 C-0.05347656 3.45078125 -0.04445313 2.6515625 -0.03515625 1.828125 C-0.02355469 1.22484375 -0.01195312 0.6215625 0 0 Z " fill="#CACAC8" transform="translate(397,374)"/>
<path d="M0 0 C0.33 0 0.66 0 1 0 C1.68041782 5.27323808 -0.75213663 9.39388711 -3 14 C-3.66 14 -4.32 14 -5 14 C-4.28269264 10.76834156 -3.18684926 7.81292078 -1.9375 4.75 C-1.57527344 3.85796875 -1.21304687 2.9659375 -0.83984375 2.046875 C-0.56269531 1.37140625 -0.28554688 0.6959375 0 0 Z " fill="#C9C9C7" transform="translate(348,168)"/>
<path d="M0 0 C0.66 0.33 1.32 0.66 2 1 C1.38125 2.010625 0.7625 3.02125 0.125 4.0625 C-1.92943955 7.63227085 -3.02269575 11.009341 -4 15 C-5.1796875 13.359375 -5.1796875 13.359375 -6 11 C-4.8828125 8.203125 -4.8828125 8.203125 -3.125 5.25 C-2.55007812 4.26515625 -1.97515625 3.2803125 -1.3828125 2.265625 C-0.92648438 1.51796875 -0.47015625 0.7703125 0 0 Z " fill="#D6D5D4" transform="translate(82,150)"/>
<path d="M0 0 C0.66 0 1.32 0 2 0 C1.54177532 3.46941546 1.10868317 6.67395049 0 10 C1.98 10 3.96 10 6 10 C6 10.33 6 10.66 6 11 C3.69 11 1.38 11 -1 11 C-1.14285714 3.57142857 -1.14285714 3.57142857 0 0 Z " fill="#C3C3C2" transform="translate(99,379)"/>
<path d="M0 0 C6.15234375 0.5859375 6.15234375 0.5859375 8 1 C8.33 1.66 8.66 2.32 9 3 C9.99 3.66 10.98 4.32 12 5 C4.61538462 4.50769231 4.61538462 4.50769231 1.5 1.9375 C1.005 1.298125 0.51 0.65875 0 0 Z " fill="#DDDCDA" transform="translate(63,250)"/>
<path d="M0 0 C0.99 0.33 1.98 0.66 3 1 C-1.455 4.465 -1.455 4.465 -6 8 C-6.66 7.67 -7.32 7.34 -8 7 C-8 6.34 -8 5.68 -8 5 C-7.01 5 -6.02 5 -5 5 C-5 4.34 -5 3.68 -5 3 C-4.01 3 -3.02 3 -2 3 C-2 2.34 -2 1.68 -2 1 C-1.34 0.67 -0.68 0.34 0 0 Z " fill="#D2D0CF" transform="translate(437,246)"/>
<path d="M0 0 C0.66 0 1.32 0 2 0 C2.33 1.98 2.66 3.96 3 6 C3.66 6 4.32 6 5 6 C5.33 8.31 5.66 10.62 6 13 C3.19438607 11.59719304 2.99319493 9.9490995 1.875 7.0625 C1.52179688 6.16660156 1.16859375 5.27070313 0.8046875 4.34765625 C0 2 0 2 0 0 Z " fill="#CAC9C9" transform="translate(410,180)"/>
<path d="M0 0 C0.33 0 0.66 0 1 0 C0.93993922 1.45947705 0.8511311 2.91779272 0.75 4.375 C0.70359375 5.18710938 0.6571875 5.99921875 0.609375 6.8359375 C0 9 0 9 -2.046875 10.2890625 C-3.01367188 10.64097656 -3.01367188 10.64097656 -4 11 C-2.95902388 7.13351728 -1.96301592 3.50538557 0 0 Z " fill="#D1D1D1" transform="translate(95,118)"/>
<path d="M0 0 C0.99 0.33 1.98 0.66 3 1 C2.01 1.33 1.02 1.66 0 2 C0 2.66 0 3.32 0 4 C-1.96147874 5.38938077 -3.96166576 6.7260411 -6 8 C-6 6.68 -6 5.36 -6 4 C-3.1875 1.6875 -3.1875 1.6875 0 0 Z " fill="#D7D5D3" transform="translate(273,446)"/>
<path d="M0 0 C2.97 0.495 2.97 0.495 6 1 C6.66 2.98 7.32 4.96 8 7 C6.66382648 6.02471263 5.3311249 5.04466681 4 4.0625 C3.2575 3.51722656 2.515 2.97195313 1.75 2.41015625 C1.1725 1.94480469 0.595 1.47945313 0 1 C0 0.67 0 0.34 0 0 Z " fill="#D9D7D6" transform="translate(223,446)"/>
<path d="M0 0 C4.72463088 0.46319911 8.17057052 1.09891706 12 4 C12 4.66 12 5.32 12 6 C7.76570244 4.68938409 3.92592596 3.05643741 0 1 C0 0.67 0 0.34 0 0 Z " fill="#C5C4C2" transform="translate(206,397)"/>
<path d="M0 0 C2.09715785 3.14573677 2.52004559 5.01456251 3.125 8.6875 C3.29257812 9.68136719 3.46015625 10.67523438 3.6328125 11.69921875 C3.75398438 12.45847656 3.87515625 13.21773438 4 14 C3.01 13.67 2.02 13.34 1 13 C0.67 8.71 0.34 4.42 0 0 Z " fill="#D1D0CC" transform="translate(388,338)"/>
<path d="M0 0 C4.04420651 1.77945087 7.46078487 4.39529673 11 7 C10.67 7.66 10.34 8.32 10 9 C8.68 8.34 7.36 7.68 6 7 C6 6.34 6 5.68 6 5 C5.38125 4.9175 4.7625 4.835 4.125 4.75 C2 4 2 4 0.75 1.9375 C0.5025 1.298125 0.255 0.65875 0 0 Z " fill="#CECDCB" transform="translate(226,317)"/>
<path d="M0 0 C0.33 0 0.66 0 1 0 C1.78774617 8.03501094 1.78774617 8.03501094 -1.5 12.0625 C-2.325 12.701875 -3.15 13.34125 -4 14 C-4 13.01 -4 12.02 -4 11 C-3.34 11 -2.68 11 -2 11 C-1.34 7.37 -0.68 3.74 0 0 Z " fill="#D1CFCD" transform="translate(261,300)"/>
<path d="M0 0 C0.99 0 1.98 0 3 0 C2.67 2.97 2.34 5.94 2 9 C1.67 8.01 1.34 7.02 1 6 C0.34 5.67 -0.32 5.34 -1 5 C-0.67 3.35 -0.34 1.7 0 0 Z " fill="#D9D9D7" transform="translate(100,373)"/>
<path d="M0 0 C0.66 0 1.32 0 2 0 C1.54917531 1.46067199 1.08906463 2.91848032 0.625 4.375 C0.36976562 5.18710938 0.11453125 5.99921875 -0.1484375 6.8359375 C-1 9 -1 9 -3 11 C-3.125 5.25 -3.125 5.25 -2 3 C-1.34 3 -0.68 3 0 3 C0 2.01 0 1.02 0 0 Z " fill="#D1D1CF" transform="translate(91,168)"/>
<path d="M0 0 C3 1 3 1 4.1875 3.375 C5 6 5 6 5 9 C4.01 8.67 3.02 8.34 2 8 C0.5522078 5.10441559 0 3.25811062 0 0 Z " fill="#D4D3D0" transform="translate(130,129)"/>
<path d="M0 0 C2.64 0.33 5.28 0.66 8 1 C8.33 1.99 8.66 2.98 9 4 C6.36 3.67 3.72 3.34 1 3 C0.67 2.01 0.34 1.02 0 0 Z " fill="#D9D8D3" transform="translate(326,84)"/>
<path d="M0 0 C1.62490954 -0.02698189 3.24994633 -0.04638757 4.875 -0.0625 C5.77992188 -0.07410156 6.68484375 -0.08570313 7.6171875 -0.09765625 C10 0 10 0 12 1 C12 1.66 12 2.32 12 3 C7.66831683 3.26252625 4.1196377 2.29243536 0 1 C0 0.67 0 0.34 0 0 Z " fill="#DADAD5" transform="translate(161,404)"/>
<path d="M0 0 C0.33 0.99 0.66 1.98 1 3 C1.66 3 2.32 3 3 3 C2.67 4.32 2.34 5.64 2 7 C1.01 7 0.02 7 -1 7 C-1.04254356 5.00045254 -1.04080783 2.99958364 -1 1 C-0.67 0.67 -0.34 0.34 0 0 Z " fill="#D5D4D3" transform="translate(256,415)"/>
<path d="M0 0 C-5.57313913 2.78656957 -7.76917417 2.90447472 -14 2 C-14 1.67 -14 1.34 -14 1 C-9.32798795 -0.20568053 -4.78503708 -0.09382426 0 0 Z " fill="#E8E4E1" transform="translate(332,384)"/>
<path d="M0 0 C0.556875 0.226875 1.11375 0.45375 1.6875 0.6875 C-0.69823379 2.57963369 -2.38425348 3.71141783 -5.3125 4.6875 C-5.9725 4.0275 -6.6325 3.3675 -7.3125 2.6875 C-2.88173077 -0.38942308 -2.88173077 -0.38942308 0 0 Z " fill="#D5D5D4" transform="translate(149.3125,255.3125)"/>
<path d="M0 0 C0.99 0 1.98 0 3 0 C2.01 2.97 1.02 5.94 0 9 C-0.33 9 -0.66 9 -1 9 C-0.67 6.03 -0.34 3.06 0 0 Z " fill="#D1D0CF" transform="translate(370,155)"/>
<path d="M0 0 C0.99 0.33 1.98 0.66 3 1 C4.6900877 4.80269732 5.19873962 7.05272168 4 11 C3.32880451 9.5437455 2.66318193 8.08492133 2 6.625 C1.62875 5.81289062 1.2575 5.00078125 0.875 4.1640625 C0 2 0 2 0 0 Z " fill="#CECAC8" transform="translate(388,129)"/>
<path d="M0 0 C3.16115776 1.36983503 3.9927092 1.9890638 6 5 C5.625 7.1875 5.625 7.1875 5 9 C4.16396622 7.68921847 3.3312426 6.37632511 2.5 5.0625 C2.0359375 4.33160156 1.571875 3.60070313 1.09375 2.84765625 C0 1 0 1 0 0 Z " fill="#C9C8C7" transform="translate(256,50)"/>
<path d="M0 0 C-3.1254959 2.64465038 -6.08788267 3.84414715 -10 5 C-10 4.34 -10 3.68 -10 3 C-9.01 3 -8.02 3 -7 3 C-7 2.34 -7 1.68 -7 1 C-4.53721199 -0.231394 -2.7204945 -0.07159196 0 0 Z " fill="#C7C6C3" transform="translate(299,433)"/>
<path d="M0 0 C2.64 0.99 5.28 1.98 8 3 C7.01 3.66 6.02 4.32 5 5 C2.3125 4.125 2.3125 4.125 0 3 C0 2.01 0 1.02 0 0 Z " fill="#D4D4CF" transform="translate(209,415)"/>
<path d="M0 0 C3.55780196 0.60990891 6.6828589 1.5783681 10 3 C10 3.33 10 3.66 10 4 C7.69 4 5.38 4 3 4 C2.67 3.01 2.34 2.02 2 1 C1.34 0.67 0.68 0.34 0 0 Z " fill="#E0DFDD" transform="translate(346,254)"/>
<path d="M0 0 C2.6855594 2.6855594 3.06049974 5.37621328 4 9 C3.01 9.495 3.01 9.495 2 10 C-0.09350689 6.5980513 -0.17942163 3.94727588 0 0 Z " fill="#C7C5C3" transform="translate(153,179)"/>
<path d="M0 0 C2.01822917 0.06510417 4.03645833 0.13020833 6.0546875 0.1953125 C5.0646875 1.6803125 5.0646875 1.6803125 4.0546875 3.1953125 C1.4146875 2.8653125 -1.2253125 2.5353125 -3.9453125 2.1953125 C-1.9453125 0.1953125 -1.9453125 0.1953125 0 0 Z " fill="#EBEBE8" transform="translate(148.9453125,107.8046875)"/>
<path d="M0 0 C3.96 1.98 3.96 1.98 8 4 C7.67 4.66 7.34 5.32 7 6 C5.0625 5.6875 5.0625 5.6875 3 5 C2.67 4.01 2.34 3.02 2 2 C1.34 2 0.68 2 0 2 C0 1.34 0 0.68 0 0 Z " fill="#CDCDCC" transform="translate(239,433)"/>
<path d="M0 0 C1.60495567 0.11442461 3.20898119 0.24194694 4.8125 0.375 C5.70582031 0.44460938 6.59914062 0.51421875 7.51953125 0.5859375 C10 1 10 1 13 3 C9.57056481 4.18771723 7.62215325 3.80226223 4.25 2.5625 C3.45078125 2.27503906 2.6515625 1.98757813 1.828125 1.69140625 C1.22484375 1.46324219 0.6215625 1.23507812 0 1 C0 0.67 0 0.34 0 0 Z " fill="#D2CDCC" transform="translate(182,388)"/>
<path d="M0 0 C0.66 0.33 1.32 0.66 2 1 C0.68 2.65 -0.64 4.3 -2 6 C-3.32 5.67 -4.64 5.34 -6 5 C-4.02 3.35 -2.04 1.7 0 0 Z " fill="#D8D8D6" transform="translate(273,315)"/>
<path d="M0 0 C0.99 0 1.98 0 3 0 C3 0.66 3 1.32 3 2 C2.34 2 1.68 2 1 2 C1 2.66 1 3.32 1 4 C0.34 4 -0.32 4 -1 4 C-1 4.66 -1 5.32 -1 6 C-1.66 6 -2.32 6 -3 6 C-2.42655063 3.13275314 -2.1385485 2.1385485 0 0 Z " fill="#E1E1E0" transform="translate(169,239)"/>
<path d="M0 0 C3 2 3 2 3.8125 3.9375 C4 6 4 6 2 9 C0.50178941 5.62902617 0 3.79557881 0 0 Z " fill="#D9D9D7" transform="translate(156,188)"/>
<path d="M0 0 C2.6855594 2.6855594 3.06049974 5.37621328 4 9 C3.34 9 2.68 9 2 9 C2 8.34 2 7.68 2 7 C1.34 7 0.68 7 0 7 C0 4.69 0 2.38 0 0 Z " fill="#CCCCCA" transform="translate(414,147)"/>
<path d="M0 0 C0.99 0.495 0.99 0.495 2 1 C2.59355614 3.64860427 2.74209269 6.29197322 3 9 C1.5 7.875 1.5 7.875 0 6 C-0.1875 2.8125 -0.1875 2.8125 0 0 Z " fill="#DCDCD8" transform="translate(403,122)"/>
<path d="M0 0 C0.99 0 1.98 0 3 0 C3.66 2.31 4.32 4.62 5 7 C4.01 6.67 3.02 6.34 2 6 C0.8125 2.9375 0.8125 2.9375 0 0 Z " fill="#D4D3D2" transform="translate(148,172)"/>
<path d="M0 0 C0.66 0 1.32 0 2 0 C0.125 5.75 0.125 5.75 -1 8 C-1.66 8 -2.32 8 -3 8 C-1.125 1.125 -1.125 1.125 0 0 Z " fill="#D4D3D2" transform="translate(368,123)"/>
</svg>
