<?xml version="1.0" encoding="utf-8"?><!-- Uploaded to: SVG Repo, www.svgrepo.com, Generator: SVG Repo Mixer Tools -->
<svg width="800px" height="800px" viewBox="-0.5 0 25 25" fill="none" xmlns="http://www.w3.org/2000/svg">
<path d="M11.5 4.25H6.5C5.43913 4.25 4.42178 4.67142 3.67163 5.42157C2.92149 6.17172 2.5 7.18913 2.5 8.25V18.25C2.5 19.3109 2.92149 20.3283 3.67163 21.0784C4.42178 21.8286 5.43913 22.25 6.5 22.25H16.5C17.5609 22.25 18.5783 21.8286 19.3284 21.0784C20.0786 20.3283 20.5 19.3109 20.5 18.25V13.25" stroke="#000000" stroke-width="1.5" stroke-linecap="round" stroke-linejoin="round"/>
<path d="M21.4998 3.28998L12.0098 12.78" stroke="#000000" stroke-width="1.5" stroke-linecap="round" stroke-linejoin="round"/>
<path d="M17.1396 13.37H13.4297C12.8993 13.37 12.3905 13.1593 12.0154 12.7842C11.6404 12.4092 11.4297 11.9004 11.4297 11.37V7.65997" stroke="#000000" stroke-width="1.5" stroke-linecap="round" stroke-linejoin="round"/>
</svg>