<svg fill="#FFFFFF" xmlns="http://www.w3.org/2000/svg"  viewBox="0 0 50 50" width="50px" height="50px"><path d="M37,4H13c-4.963,0-9,4.037-9,9v24c0,4.963,4.037,9,9,9h24c4.963,0,9-4.037,9-9V13C46,8.037,41.963,4,37,4z M14,15h18	c0.553,0,1,0.447,1,1c0,0.553-0.447,1-1,1H14c-0.553,0-1-0.447-1-1S13.447,15,14,15z M44,17.171	c-1.796,2.942-10.193,16.435-13.717,17.497L29.4,36.435c-0.175,0.351-0.528,0.553-0.896,0.553c-0.15,0-0.303-0.034-0.446-0.105	c-0.174-0.087-0.296-0.227-0.391-0.382c-0.906,0.334-1.853,0.483-2.647,0.487c-1.603-0.004-2.621-0.697-3.404-1.265	C20.979,35.261,20.59,35,20,35c-0.562,0-0.978,0.239-1.663,0.661C17.369,36.258,16.165,37,14,37c-0.553,0-1-0.447-1-1s0.447-1,1-1	c1.598,0,2.419-0.506,3.288-1.041C18.053,33.487,18.844,33,20,33c1.267,0,2.075,0.586,2.789,1.104	c0.682,0.493,1.22,0.884,2.201,0.884c0.007,0,0.013,0,0.02,0c1.253-0.006,2.914-0.486,3.635-1.518l0.1-0.2	c-0.134-1.062,0.159-2.55,0.73-4.27H14c-0.553,0-1-0.447-1-1s0.447-1,1-1h16.213c0.518-1.287,1.136-2.643,1.799-4H14	c-0.553,0-1-0.447-1-1s0.447-1,1-1h19.018c1.724-3.332,3.554-6.448,4.637-8.266c1.922,1.762,4.808,3.214,6.345,3.746V17.171z M44,14.596c-1.874-0.778-4.654-2.589-5.664-3.501V9.681l1.798-2.931C42.423,7.903,44,10.268,44,13V14.596z"/></svg>