<svg version="1.1" xmlns="http://www.w3.org/2000/svg" width="512px" height="512px" transform="rotate(0) scale(1, 1)">
<path d="M0 0 C1.33606234 -0.00258732 2.67212392 -0.0056015 4.00818443 -0.0090034 C7.66473523 -0.01703368 11.32126636 -0.01886075 14.97782493 -0.01960087 C18.92758947 -0.0214584 22.87734397 -0.02900927 26.82710266 -0.03573608 C35.45759188 -0.04929212 44.08807643 -0.05533999 52.71857452 -0.05974674 C58.1132263 -0.06251404 63.50787629 -0.0667523 68.90252686 -0.07125092 C83.85489794 -0.08344049 98.80726761 -0.09374011 113.75964355 -0.09712601 C115.1938951 -0.09745536 115.1938951 -0.09745536 116.65712142 -0.09779136 C117.61550737 -0.09800964 118.57389331 -0.09822791 119.56132126 -0.09845281 C121.5032018 -0.09889626 123.44508235 -0.09934283 125.38696289 -0.09979248 C126.83180612 -0.10012463 126.83180612 -0.10012463 128.30583811 -0.10046348 C143.90150369 -0.10440859 159.49712247 -0.12185526 175.09276998 -0.145152 C191.1257183 -0.16890754 207.15864318 -0.18132978 223.19160938 -0.18249393 C232.18494531 -0.18340838 241.17822025 -0.18910246 250.17153931 -0.20731354 C257.83192818 -0.22277141 265.49223722 -0.22780165 273.15263873 -0.21957543 C277.05540021 -0.21568884 280.9580012 -0.21650014 284.86074257 -0.23063278 C312.71970188 -0.32552066 336.80368975 1.6080115 358.22924805 21.37481689 C364.95422781 28.49249621 370.41532484 36.75269101 376.07495117 44.71856689 C378.92420065 48.70173415 381.83381557 52.63983534 384.74487305 56.57794189 C385.3251123 57.36410889 385.90535156 58.15027588 386.50317383 58.96026611 C388.27043347 61.35425518 390.03873841 63.7474685 391.80737305 66.14044189 C399.228588 76.18139075 406.61909111 86.24110594 413.9152832 96.37335205 C417.82661781 101.79859906 421.77491576 107.19546332 425.74487305 112.57794189 C426.32261475 113.36193359 426.90035645 114.14592529 427.49560547 114.95367432 C430.48118119 119.00123057 433.47723818 123.04056838 436.48706055 127.07012939 C451.15340201 146.74076518 462.18368894 162.55850812 459.80737305 188.14044189 C457.13557392 204.80822186 444.45817294 218.53839198 434.63793945 231.68487549 C431.67676542 235.65706652 428.74311919 239.64944299 425.80737305 243.64044189 C422.29881909 248.40450299 418.78839457 253.16716049 415.2722168 257.92559814 C409.57772706 265.63583647 403.90854362 273.36207778 398.30737305 281.14044189 C392.71287913 288.90953411 387.05269679 296.6280243 381.3581543 304.32403564 C378.94040999 307.59423692 376.54459969 310.87910253 374.1628418 314.17559814 C359.67952789 334.17729484 344.47306639 351.01244458 318.91793251 355.19903183 C311.90835768 356.24032533 305.05617231 356.42030405 297.97982788 356.39440918 C296.63588595 356.39671979 295.2919453 356.39990031 293.94800723 356.40386367 C290.2930689 356.41213767 286.63823631 356.40812049 282.98329782 356.40189123 C279.02689845 356.39733723 275.07051635 356.40436496 271.11412048 356.40985107 C263.37913583 356.41871495 255.64419013 356.41683666 247.90920399 356.41102579 C241.6205129 356.40649809 235.33183267 356.40590118 229.04314041 356.40807343 C228.14608533 356.40837989 227.24903025 356.40868636 226.32479168 356.40900211 C224.50212966 356.4096416 222.67946765 356.41029002 220.85680564 356.41094729 C203.79174418 356.41664161 186.72670425 356.41010647 169.66164632 356.39934656 C155.03377883 356.39040881 140.40594309 356.39196669 125.77807617 356.40118408 C108.76849299 356.41189732 91.75892864 356.41609559 74.74934256 356.40995955 C72.93421976 356.40932249 71.11909696 356.40869375 69.30397415 356.40807343 C68.41102099 356.40776487 67.51806782 356.40745632 66.59805547 356.40713842 C60.31927576 356.40541487 54.04050805 356.40831918 47.76173019 356.41303253 C40.1068164 356.41865294 32.45194361 356.41710042 24.79703449 356.40647104 C20.89489501 356.40123041 16.99282379 356.39913009 13.09068489 356.40576935 C9.5130961 356.41176418 5.93563831 356.40839594 2.35806127 356.39781424 C0.46301482 356.39455051 -1.43204085 356.40101937 -3.32707751 356.40792871 C-17.69673776 356.34253109 -30.35990091 354.04447473 -41.13012695 343.82794189 C-50.23082504 334.01831261 -52.49673832 324.3981716 -52.46005249 311.36315918 C-52.4645836 310.18070925 -52.46911472 308.99825931 -52.47378314 307.77997756 C-52.48423083 304.51053089 -52.48575683 301.24122304 -52.48339438 297.97176504 C-52.48298533 294.44061309 -52.49403386 290.90949364 -52.50350952 287.37835693 C-52.52010149 280.46472554 -52.52561826 273.55112826 -52.52673428 266.63747862 C-52.52768565 261.01559514 -52.53180038 255.39372288 -52.53813553 249.77184296 C-52.55574334 233.82103335 -52.56497517 217.87025063 -52.56347458 201.91943124 C-52.56339467 201.0600503 -52.56331476 200.20066937 -52.56323242 199.31524658 C-52.56315066 198.45481222 -52.5630689 197.59437787 -52.56298466 196.70786974 C-52.56217198 182.76740196 -52.58130623 168.82704229 -52.60950916 154.88660577 C-52.63826152 140.56115614 -52.65204814 126.2357592 -52.6503216 111.91027999 C-52.64965849 103.87225131 -52.655116 95.83433595 -52.6766777 87.79633331 C-52.69492054 80.95188033 -52.6992115 74.10759203 -52.68565886 67.26312521 C-52.67914464 63.77408941 -52.67895537 60.28536928 -52.69636536 56.79636383 C-52.71182782 53.00584858 -52.70250146 49.21615702 -52.68710327 45.42565918 C-52.6973904 44.33410027 -52.70767752 43.24254136 -52.71827638 42.1179049 C-52.60892031 29.89809514 -48.4905661 20.85156592 -40.2277832 12.04669189 C-28.59674697 0.77321012 -15.35937004 -0.01081701 0 0 Z M-21.98131752 35.12809753 C-23.86274199 39.8069172 -23.60478535 44.34128596 -23.57357788 49.33795166 C-23.57825785 50.48209062 -23.58293782 51.62622957 -23.58775961 52.80503941 C-23.59974694 56.64742612 -23.59023745 60.48945864 -23.58081055 64.33184814 C-23.58322393 67.08306618 -23.59010679 69.83426907 -23.59674072 72.58547974 C-23.61008534 79.2875119 -23.6071971 85.98944332 -23.5985028 92.69147944 C-23.59172952 98.13802718 -23.59080799 103.58454667 -23.59407425 109.03109741 C-23.59453395 109.8060775 -23.59499365 110.58105758 -23.59546728 111.37952191 C-23.59642645 112.95384559 -23.59739909 114.52816926 -23.59838505 116.10249293 C-23.60694108 130.8672956 -23.59710148 145.63204241 -23.58098395 160.39683592 C-23.56758057 173.06758412 -23.5699086 185.73824987 -23.58374023 198.40899658 C-23.5997923 213.12071942 -23.60611708 227.83239328 -23.59690344 242.54412365 C-23.59594779 244.11267788 -23.59500468 245.68123213 -23.59407425 247.24978638 C-23.59361142 248.02155875 -23.5931486 248.79333113 -23.59267174 249.58849055 C-23.59008073 255.02892549 -23.59445524 260.46932939 -23.60151291 265.90975952 C-23.60992396 272.53922679 -23.60765614 279.16858749 -23.59167068 285.79804254 C-23.58378248 289.18099296 -23.58231836 292.56361834 -23.59061813 295.94659042 C-23.59878382 299.61221643 -23.58857158 303.27733846 -23.57357788 306.94293213 C-23.58027005 308.01442285 -23.58696221 309.08591356 -23.59385717 310.1898737 C-23.63883712 317.21767146 -23.63883712 317.21767146 -20.19262695 323.14044189 C-16.48996989 325.77051187 -13.97427846 326.51608182 -9.45438194 326.52075863 C-7.7253438 326.53341854 -7.7253438 326.53341854 -5.96137559 326.54633421 C-4.69943018 326.54032416 -3.43748477 326.53431412 -2.13729858 326.52812195 C-0.77963432 326.53229519 0.57802645 326.53777265 1.93568075 326.54444176 C5.66573604 326.55891744 9.39557077 326.55464503 13.12563825 326.54727495 C17.1489961 326.54255058 21.17230573 326.5550469 25.19564819 326.56529236 C33.07879336 326.58250234 40.9618589 326.58331551 48.84501798 326.57807945 C55.25451947 326.57403922 61.66399741 326.57547959 68.07349777 326.58082771 C68.98551358 326.58157614 69.89752939 326.58232456 70.83718204 326.58309566 C72.68996133 326.58462714 74.54274062 326.58616549 76.3955199 326.58771063 C93.77864063 326.60144459 111.16171638 326.59599256 128.54483609 326.58452541 C144.43832039 326.57460065 160.33168815 326.58751901 176.22515447 326.61145961 C192.54840713 326.63586199 208.87160554 326.64545514 225.19487607 326.63880688 C234.35745656 326.63531609 243.51994751 326.63753701 252.68251419 326.65505791 C260.48587961 326.66979449 268.28909251 326.67039676 276.09245498 326.652987 C280.07157157 326.64448497 284.05041587 326.64230752 288.02951813 326.65763855 C291.67787247 326.67152065 295.32572217 326.6666779 298.97404759 326.64739931 C300.90725995 326.64188381 302.84049823 326.65588187 304.77366126 326.67075342 C314.45059615 326.58946513 323.08670935 324.63154931 331.05737305 318.89044189 C331.8050293 318.36966064 332.55268555 317.84887939 333.32299805 317.31231689 C339.44072496 311.96411538 344.20255219 305.43423549 348.86987305 298.82794189 C350.00706543 297.23620386 351.14511497 295.64507793 352.28393555 294.05450439 C352.86433594 293.24271729 353.44473633 292.43093018 354.04272461 291.59454346 C356.91047921 287.60634905 359.82612942 283.65389919 362.74487305 279.70294189 C363.32567627 278.91621094 363.90647949 278.12947998 364.50488281 277.31890869 C365.68342317 275.7229381 366.86221565 274.12715365 368.04125977 272.53155518 C370.96693399 268.57053039 373.88694583 264.60533595 376.80737305 260.64044189 C380.31626229 255.87662719 383.82635107 251.11372391 387.3425293 246.35528564 C393.57588209 237.91543628 399.77033746 229.45044358 405.89550781 220.93170166 C408.7569161 216.9582272 411.64078772 213.00332737 414.55737305 209.07012939 C415.18321289 208.22579346 415.80905273 207.38145752 416.45385742 206.51153564 C417.65040233 204.90017169 418.84944393 203.29065731 420.05151367 201.68341064 C428.21611626 191.09808253 428.21611626 191.09808253 431.05737305 178.39044189 C431.0831543 177.59122314 431.10893555 176.79200439 431.13549805 175.96856689 C430.21549396 168.03900782 426.22435149 162.48196203 421.49487305 156.32794189 C420.22769478 154.64453719 418.96077489 152.96093797 417.6940918 151.27716064 C417.04746582 150.42428467 416.40083984 149.57140869 415.73461914 148.69268799 C412.72163804 144.70260635 409.76610502 140.6708142 406.80737305 136.64044189 C405.64234242 135.0581647 404.47697685 133.47613406 403.3112793 131.89434814 C402.445271 130.71896484 402.445271 130.71896484 401.56176758 129.51983643 C399.80007704 127.1305467 398.03639206 124.74274116 396.2722168 122.35528564 C390.03266233 113.90703933 383.83673084 105.43037606 377.69946289 96.90753174 C372.06062957 89.08614425 366.33479517 81.32980554 360.60424805 73.57550049 C358.75151567 71.06474605 356.90380995 68.55036035 355.05737305 66.03497314 C354.43983154 65.19442383 353.82229004 64.35387451 353.18603516 63.487854 C352.01927123 61.89949289 350.85334651 60.3105148 349.68847656 58.72076416 C340.21229067 45.83229828 331.05456067 34.3411892 314.80737305 30.14044189 C310.32064033 29.70817252 305.85563499 29.73551388 301.35090637 29.75949097 C299.98637747 29.75603074 298.62185137 29.75126372 297.25733107 29.74530923 C293.52246289 29.73282012 289.78782556 29.73895995 286.0529567 29.74826789 C282.01954681 29.75506644 277.98617611 29.74457329 273.95277405 29.73632812 C266.05801097 29.72299829 258.16333353 29.72586487 250.26856712 29.73456605 C243.85336609 29.74134369 237.43818904 29.74225897 231.02298546 29.7389946 C230.10964378 29.7385349 229.19630211 29.7380752 228.25528341 29.73760157 C226.39983433 29.73664239 224.54438526 29.73566975 222.6889362 29.7346838 C205.29739686 29.72613247 187.90590499 29.73596075 170.51437344 29.7520849 C155.58833459 29.7654946 140.66236572 29.76315412 125.73632812 29.74932861 C108.40198304 29.73327989 91.06767952 29.72694931 73.73332804 29.7361654 C71.88565648 29.73712106 70.03798491 29.73806417 68.19031334 29.7389946 C67.28122041 29.73945742 66.37212749 29.73992025 65.43548629 29.7403971 C59.02569931 29.74298861 52.61593868 29.73861267 46.20615578 29.73155594 C38.39831797 29.72314891 30.59057067 29.72540455 22.78274325 29.74139817 C18.79831827 29.7492906 14.81404428 29.7523559 10.82962036 29.74245071 C7.1836221 29.73352375 3.53791507 29.73840336 -0.1080567 29.75438337 C-2.05450118 29.75933179 -4.00096581 29.74951696 -5.9473893 29.73921168 C-7.1019315 29.74703492 -8.25647369 29.75485816 -9.44600201 29.76291847 C-10.4422285 29.76340553 -11.43845498 29.76389259 -12.46487015 29.7643944 C-16.57862833 30.33151551 -19.23055555 32.07135444 -21.98131752 35.12809753 Z " fill="#FFFFFFB2" transform="translate(52.192626953125,77.85955810546875)"/>
</svg>